<?xml version="1.0" encoding="UTF-8" standalone="no"?>
<!DOCTYPE svg PUBLIC "-//W3C//DTD SVG 1.1//EN"
 "http://www.w3.org/Graphics/SVG/1.1/DTD/svg11.dtd">
<!-- Generated by graphviz version 2.46.0 (20210118.1747)
 -->
<!-- Pages: 1 -->
<svg width="434pt" height="1214pt"
 viewBox="0.00 0.00 434.00 1214.00" xmlns="http://www.w3.org/2000/svg" xmlns:xlink="http://www.w3.org/1999/xlink">
<g id="graph0" class="graph" transform="scale(1 1) rotate(0) translate(4 1210)">
<polygon fill="white" stroke="transparent" points="-4,4 -4,-1210 430,-1210 430,4 -4,4"/>
<!-- I0 -->
<g id="node1" class="node">
<title>I0</title>
<path fill="lightblue" stroke="black" d="M307,-1133C307,-1133 237,-1133 237,-1133 231,-1133 225,-1127 225,-1121 225,-1121 225,-969 225,-969 225,-963 231,-957 237,-957 237,-957 307,-957 307,-957 313,-957 319,-963 319,-969 319,-969 319,-1121 319,-1121 319,-1127 313,-1133 307,-1133"/>
<polygon fill="darkblue" stroke="transparent" points="233,-1108 233,-1129 311,-1129 311,-1108 233,-1108"/>
<polygon fill="none" stroke="black" points="233,-1108 233,-1129 311,-1129 311,-1108 233,-1108"/>
<text text-anchor="start" x="265.5" y="-1115.8" font-family="Times New Roman,serif" font-weight="bold" font-size="14.00" fill="white">I0</text>
<polygon fill="none" stroke="black" points="233,-1087 233,-1108 311,-1108 311,-1087 233,-1087"/>
<text text-anchor="start" x="236" y="-1093.8" font-family="Times New Roman,serif" font-size="14.00">E → • E + T</text>
<polygon fill="none" stroke="black" points="233,-1066 233,-1087 311,-1087 311,-1066 233,-1066"/>
<text text-anchor="start" x="236" y="-1072.8" font-family="Times New Roman,serif" font-size="14.00">E → • T</text>
<polygon fill="none" stroke="black" points="233,-1045 233,-1066 311,-1066 311,-1045 233,-1045"/>
<text text-anchor="start" x="236" y="-1051.8" font-family="Times New Roman,serif" font-size="14.00">E&#39; → • E</text>
<polygon fill="none" stroke="black" points="233,-1024 233,-1045 311,-1045 311,-1024 233,-1024"/>
<text text-anchor="start" x="236" y="-1030.8" font-family="Times New Roman,serif" font-size="14.00">F → • ( E )</text>
<polygon fill="none" stroke="black" points="233,-1003 233,-1024 311,-1024 311,-1003 233,-1003"/>
<text text-anchor="start" x="236" y="-1009.8" font-family="Times New Roman,serif" font-size="14.00">F → • id</text>
<polygon fill="none" stroke="black" points="233,-982 233,-1003 311,-1003 311,-982 233,-982"/>
<text text-anchor="start" x="236" y="-988.8" font-family="Times New Roman,serif" font-size="14.00">T → • F</text>
<polygon fill="none" stroke="black" points="233,-961 233,-982 311,-982 311,-961 233,-961"/>
<text text-anchor="start" x="236" y="-967.8" font-family="Times New Roman,serif" font-size="14.00">T → • T * F</text>
</g>
<!-- I1 -->
<g id="node2" class="node">
<title>I1</title>
<path fill="orange" stroke="black" d="M306.5,-910C306.5,-910 237.5,-910 237.5,-910 231.5,-910 225.5,-904 225.5,-898 225.5,-898 225.5,-851 225.5,-851 225.5,-845 231.5,-839 237.5,-839 237.5,-839 306.5,-839 306.5,-839 312.5,-839 318.5,-845 318.5,-851 318.5,-851 318.5,-898 318.5,-898 318.5,-904 312.5,-910 306.5,-910"/>
<polygon fill="darkblue" stroke="transparent" points="234,-884.5 234,-905.5 311,-905.5 311,-884.5 234,-884.5"/>
<polygon fill="none" stroke="black" points="234,-884.5 234,-905.5 311,-905.5 311,-884.5 234,-884.5"/>
<text text-anchor="start" x="266" y="-892.3" font-family="Times New Roman,serif" font-weight="bold" font-size="14.00" fill="white">I1</text>
<polygon fill="none" stroke="black" points="234,-863.5 234,-884.5 311,-884.5 311,-863.5 234,-863.5"/>
<text text-anchor="start" x="237" y="-870.3" font-family="Times New Roman,serif" font-size="14.00">E → T •</text>
<polygon fill="none" stroke="black" points="234,-842.5 234,-863.5 311,-863.5 311,-842.5 234,-842.5"/>
<text text-anchor="start" x="237" y="-849.3" font-family="Times New Roman,serif" font-size="14.00">T → T • * F</text>
</g>
<!-- I0&#45;&gt;I1 -->
<g id="edge1" class="edge">
<title>I0&#45;&gt;I1</title>
<path fill="none" stroke="blue" stroke-width="2" d="M272,-956.79C272,-944.12 272,-931.55 272,-920.21"/>
<polygon fill="blue" stroke="blue" stroke-width="2" points="275.5,-920.17 272,-910.17 268.5,-920.17 275.5,-920.17"/>
<text text-anchor="middle" x="275.5" y="-931" font-family="Times New Roman,serif" font-size="10.00">T</text>
</g>
<!-- I2 -->
<g id="node3" class="node">
<title>I2</title>
<path fill="lightcoral" stroke="black" d="M111,-60.5C111,-60.5 63,-60.5 63,-60.5 57,-60.5 51,-54.5 51,-48.5 51,-48.5 51,-22.5 51,-22.5 51,-16.5 57,-10.5 63,-10.5 63,-10.5 111,-10.5 111,-10.5 117,-10.5 123,-16.5 123,-22.5 123,-22.5 123,-48.5 123,-48.5 123,-54.5 117,-60.5 111,-60.5"/>
<polygon fill="darkblue" stroke="transparent" points="59,-35.5 59,-56.5 115,-56.5 115,-35.5 59,-35.5"/>
<polygon fill="none" stroke="black" points="59,-35.5 59,-56.5 115,-56.5 115,-35.5 59,-35.5"/>
<text text-anchor="start" x="80.5" y="-43.3" font-family="Times New Roman,serif" font-weight="bold" font-size="14.00" fill="white">I2</text>
<polygon fill="none" stroke="black" points="59,-14.5 59,-35.5 115,-35.5 115,-14.5 59,-14.5"/>
<text text-anchor="start" x="62" y="-21.3" font-family="Times New Roman,serif" font-size="14.00">F → id •</text>
</g>
<!-- I0&#45;&gt;I2 -->
<g id="edge2" class="edge">
<title>I0&#45;&gt;I2</title>
<path fill="none" stroke="red" d="M224.93,-1036.81C147.08,-1021.96 0,-980.07 0,-875.5 0,-875.5 0,-875.5 0,-184 0,-139.16 30.2,-95.96 55.01,-68.03"/>
<polygon fill="red" stroke="red" points="57.67,-70.31 61.84,-60.57 52.5,-65.58 57.67,-70.31"/>
<text text-anchor="middle" x="4" y="-502.5" font-family="Times New Roman,serif" font-size="10.00">id</text>
</g>
<!-- I3 -->
<g id="node4" class="node">
<title>I3</title>
<path fill="lightblue" stroke="black" d="M348,-593C348,-593 278,-593 278,-593 272,-593 266,-587 266,-581 266,-581 266,-429 266,-429 266,-423 272,-417 278,-417 278,-417 348,-417 348,-417 354,-417 360,-423 360,-429 360,-429 360,-581 360,-581 360,-587 354,-593 348,-593"/>
<polygon fill="darkblue" stroke="transparent" points="274,-568 274,-589 352,-589 352,-568 274,-568"/>
<polygon fill="none" stroke="black" points="274,-568 274,-589 352,-589 352,-568 274,-568"/>
<text text-anchor="start" x="306.5" y="-575.8" font-family="Times New Roman,serif" font-weight="bold" font-size="14.00" fill="white">I3</text>
<polygon fill="none" stroke="black" points="274,-547 274,-568 352,-568 352,-547 274,-547"/>
<text text-anchor="start" x="277" y="-553.8" font-family="Times New Roman,serif" font-size="14.00">E → • E + T</text>
<polygon fill="none" stroke="black" points="274,-526 274,-547 352,-547 352,-526 274,-526"/>
<text text-anchor="start" x="277" y="-532.8" font-family="Times New Roman,serif" font-size="14.00">E → • T</text>
<polygon fill="none" stroke="black" points="274,-505 274,-526 352,-526 352,-505 274,-505"/>
<text text-anchor="start" x="277" y="-511.8" font-family="Times New Roman,serif" font-size="14.00">F → • ( E )</text>
<polygon fill="none" stroke="black" points="274,-484 274,-505 352,-505 352,-484 274,-484"/>
<text text-anchor="start" x="277" y="-490.8" font-family="Times New Roman,serif" font-size="14.00">F → • id</text>
<polygon fill="none" stroke="black" points="274,-463 274,-484 352,-484 352,-463 274,-463"/>
<text text-anchor="start" x="277" y="-469.8" font-family="Times New Roman,serif" font-size="14.00">F → ( • E )</text>
<polygon fill="none" stroke="black" points="274,-442 274,-463 352,-463 352,-442 274,-442"/>
<text text-anchor="start" x="277" y="-448.8" font-family="Times New Roman,serif" font-size="14.00">T → • F</text>
<polygon fill="none" stroke="black" points="274,-421 274,-442 352,-442 352,-421 274,-421"/>
<text text-anchor="start" x="277" y="-427.8" font-family="Times New Roman,serif" font-size="14.00">T → • T * F</text>
</g>
<!-- I0&#45;&gt;I3 -->
<g id="edge3" class="edge">
<title>I0&#45;&gt;I3</title>
<path fill="none" stroke="red" d="M313.42,-956.85C319.05,-941.55 323.93,-925.54 327,-910 347.37,-806.72 339.06,-685.78 328.69,-603.32"/>
<polygon fill="red" stroke="red" points="332.14,-602.68 327.39,-593.21 325.2,-603.58 332.14,-602.68"/>
<text text-anchor="middle" x="342" y="-783" font-family="Times New Roman,serif" font-size="10.00">(</text>
</g>
<!-- I4 -->
<g id="node5" class="node">
<title>I4</title>
<path fill="lightgreen" stroke="black" d="M234,-821C234,-821 164,-821 164,-821 158,-821 152,-815 152,-809 152,-809 152,-762 152,-762 152,-756 158,-750 164,-750 164,-750 234,-750 234,-750 240,-750 246,-756 246,-762 246,-762 246,-809 246,-809 246,-815 240,-821 234,-821"/>
<polygon fill="darkblue" stroke="transparent" points="160,-795.5 160,-816.5 238,-816.5 238,-795.5 160,-795.5"/>
<polygon fill="none" stroke="black" points="160,-795.5 160,-816.5 238,-816.5 238,-795.5 160,-795.5"/>
<text text-anchor="start" x="192.5" y="-803.3" font-family="Times New Roman,serif" font-weight="bold" font-size="14.00" fill="white">I4</text>
<polygon fill="none" stroke="black" points="160,-774.5 160,-795.5 238,-795.5 238,-774.5 160,-774.5"/>
<text text-anchor="start" x="163" y="-781.3" font-family="Times New Roman,serif" font-size="14.00">E → E • + T</text>
<polygon fill="none" stroke="black" points="160,-753.5 160,-774.5 238,-774.5 238,-753.5 160,-753.5"/>
<text text-anchor="start" x="163" y="-760.3" font-family="Times New Roman,serif" font-size="14.00">E&#39; → E •</text>
</g>
<!-- I0&#45;&gt;I4 -->
<g id="edge4" class="edge">
<title>I0&#45;&gt;I4</title>
<path fill="none" stroke="blue" stroke-width="2" d="M231.78,-956.85C225.78,-941.47 220.21,-925.45 216,-910 209,-884.35 204.81,-854.89 202.34,-831.17"/>
<polygon fill="blue" stroke="blue" stroke-width="2" points="205.8,-830.66 201.35,-821.05 198.84,-831.34 205.8,-830.66"/>
<text text-anchor="middle" x="228" y="-931" font-family="Times New Roman,serif" font-size="10.00">E</text>
</g>
<!-- I5 -->
<g id="node6" class="node">
<title>I5</title>
<path fill="lightcoral" stroke="black" d="M405,-60.5C405,-60.5 359,-60.5 359,-60.5 353,-60.5 347,-54.5 347,-48.5 347,-48.5 347,-22.5 347,-22.5 347,-16.5 353,-10.5 359,-10.5 359,-10.5 405,-10.5 405,-10.5 411,-10.5 417,-16.5 417,-22.5 417,-22.5 417,-48.5 417,-48.5 417,-54.5 411,-60.5 405,-60.5"/>
<polygon fill="darkblue" stroke="transparent" points="355,-35.5 355,-56.5 409,-56.5 409,-35.5 355,-35.5"/>
<polygon fill="none" stroke="black" points="355,-35.5 355,-56.5 409,-56.5 409,-35.5 355,-35.5"/>
<text text-anchor="start" x="375.5" y="-43.3" font-family="Times New Roman,serif" font-weight="bold" font-size="14.00" fill="white">I5</text>
<polygon fill="none" stroke="black" points="355,-14.5 355,-35.5 409,-35.5 409,-14.5 355,-14.5"/>
<text text-anchor="start" x="358" y="-21.3" font-family="Times New Roman,serif" font-size="14.00">T → F •</text>
</g>
<!-- I0&#45;&gt;I5 -->
<g id="edge5" class="edge">
<title>I0&#45;&gt;I5</title>
<path fill="none" stroke="blue" stroke-width="2" d="M319.24,-1016.7C362.55,-987.73 420,-937.6 420,-875.5 420,-875.5 420,-875.5 420,-184 420,-143.85 406.63,-99.44 395.75,-69.95"/>
<polygon fill="blue" stroke="blue" stroke-width="2" points="399.01,-68.65 392.18,-60.54 392.46,-71.13 399.01,-68.65"/>
<text text-anchor="middle" x="423" y="-502.5" font-family="Times New Roman,serif" font-size="10.00">F</text>
</g>
<!-- I6 -->
<g id="node7" class="node">
<title>I6</title>
<path fill="lightblue" stroke="black" d="M193.5,-732C193.5,-732 124.5,-732 124.5,-732 118.5,-732 112.5,-726 112.5,-720 112.5,-720 112.5,-652 112.5,-652 112.5,-646 118.5,-640 124.5,-640 124.5,-640 193.5,-640 193.5,-640 199.5,-640 205.5,-646 205.5,-652 205.5,-652 205.5,-720 205.5,-720 205.5,-726 199.5,-732 193.5,-732"/>
<polygon fill="darkblue" stroke="transparent" points="121,-707 121,-728 198,-728 198,-707 121,-707"/>
<polygon fill="none" stroke="black" points="121,-707 121,-728 198,-728 198,-707 121,-707"/>
<text text-anchor="start" x="153" y="-714.8" font-family="Times New Roman,serif" font-weight="bold" font-size="14.00" fill="white">I6</text>
<polygon fill="none" stroke="black" points="121,-686 121,-707 198,-707 198,-686 121,-686"/>
<text text-anchor="start" x="124" y="-692.8" font-family="Times New Roman,serif" font-size="14.00">F → • ( E )</text>
<polygon fill="none" stroke="black" points="121,-665 121,-686 198,-686 198,-665 121,-665"/>
<text text-anchor="start" x="124" y="-671.8" font-family="Times New Roman,serif" font-size="14.00">F → • id</text>
<polygon fill="none" stroke="black" points="121,-644 121,-665 198,-665 198,-644 121,-644"/>
<text text-anchor="start" x="124" y="-650.8" font-family="Times New Roman,serif" font-size="14.00">T → T * • F</text>
</g>
<!-- I1&#45;&gt;I6 -->
<g id="edge6" class="edge">
<title>I1&#45;&gt;I6</title>
<path fill="none" stroke="red" d="M272.43,-838.98C271.23,-812.68 266.12,-776.59 249,-750 240.28,-736.45 227.51,-724.98 214.31,-715.7"/>
<polygon fill="red" stroke="red" points="215.88,-712.54 205.62,-709.91 212,-718.37 215.88,-712.54"/>
<text text-anchor="middle" x="274" y="-783" font-family="Times New Roman,serif" font-size="10.00">*</text>
</g>
<!-- I3&#45;&gt;I1 -->
<g id="edge7" class="edge">
<title>I3&#45;&gt;I1</title>
<path fill="none" stroke="blue" stroke-width="2" d="M305.77,-593.1C300.11,-656.45 291.47,-744.2 281,-821 280.66,-823.53 280.28,-826.12 279.89,-828.73"/>
<polygon fill="blue" stroke="blue" stroke-width="2" points="276.4,-828.39 278.29,-838.82 283.31,-829.49 276.4,-828.39"/>
<text text-anchor="middle" x="305.5" y="-683.5" font-family="Times New Roman,serif" font-size="10.00">T</text>
</g>
<!-- I3&#45;&gt;I2 -->
<g id="edge8" class="edge">
<title>I3&#45;&gt;I2</title>
<path fill="none" stroke="red" d="M265.79,-435.06C261.23,-428.88 256.58,-422.78 252,-417 234.6,-395.05 226.04,-392.96 210,-370 175.95,-321.27 169.11,-307.19 147,-252 122.12,-189.88 103.55,-113.77 94.07,-70.63"/>
<polygon fill="red" stroke="red" points="97.45,-69.69 91.91,-60.66 90.61,-71.17 97.45,-69.69"/>
<text text-anchor="middle" x="163" y="-273" font-family="Times New Roman,serif" font-size="10.00">id</text>
</g>
<!-- I3&#45;&gt;I3 -->
<g id="edge9" class="edge">
<title>I3&#45;&gt;I3</title>
<path fill="none" stroke="red" d="M360.04,-525.07C370.43,-523.18 378,-516.49 378,-505 378,-497.46 374.74,-491.98 369.56,-488.58"/>
<polygon fill="red" stroke="red" points="370.63,-485.24 360.04,-484.93 368.12,-491.78 370.63,-485.24"/>
<text text-anchor="middle" x="380" y="-502.5" font-family="Times New Roman,serif" font-size="10.00">(</text>
</g>
<!-- I3&#45;&gt;I5 -->
<g id="edge11" class="edge">
<title>I3&#45;&gt;I5</title>
<path fill="none" stroke="blue" stroke-width="2" d="M333.24,-416.98C334.55,-410.9 335.81,-404.86 337,-399 350.17,-333.97 354.3,-317.77 363,-252 371.42,-188.33 377.07,-113.56 379.89,-70.93"/>
<polygon fill="blue" stroke="blue" stroke-width="2" points="383.39,-71.02 380.55,-60.81 376.41,-70.57 383.39,-71.02"/>
<text text-anchor="middle" x="363" y="-273" font-family="Times New Roman,serif" font-size="10.00">F</text>
</g>
<!-- I7 -->
<g id="node8" class="node">
<title>I7</title>
<path fill="lightblue" stroke="black" d="M301,-370C301,-370 231,-370 231,-370 225,-370 219,-364 219,-358 219,-358 219,-311 219,-311 219,-305 225,-299 231,-299 231,-299 301,-299 301,-299 307,-299 313,-305 313,-311 313,-311 313,-358 313,-358 313,-364 307,-370 301,-370"/>
<polygon fill="darkblue" stroke="transparent" points="227,-344.5 227,-365.5 305,-365.5 305,-344.5 227,-344.5"/>
<polygon fill="none" stroke="black" points="227,-344.5 227,-365.5 305,-365.5 305,-344.5 227,-344.5"/>
<text text-anchor="start" x="259.5" y="-352.3" font-family="Times New Roman,serif" font-weight="bold" font-size="14.00" fill="white">I7</text>
<polygon fill="none" stroke="black" points="227,-323.5 227,-344.5 305,-344.5 305,-323.5 227,-323.5"/>
<text text-anchor="start" x="230" y="-330.3" font-family="Times New Roman,serif" font-size="14.00">E → E • + T</text>
<polygon fill="none" stroke="black" points="227,-302.5 227,-323.5 305,-323.5 305,-302.5 227,-302.5"/>
<text text-anchor="start" x="230" y="-309.3" font-family="Times New Roman,serif" font-size="14.00">F → ( E • )</text>
</g>
<!-- I3&#45;&gt;I7 -->
<g id="edge10" class="edge">
<title>I3&#45;&gt;I7</title>
<path fill="none" stroke="blue" stroke-width="2" d="M288.67,-416.79C285.11,-403.99 281.56,-391.29 278.37,-379.86"/>
<polygon fill="blue" stroke="blue" stroke-width="2" points="281.73,-378.87 275.67,-370.17 274.99,-380.75 281.73,-378.87"/>
<text text-anchor="middle" x="286" y="-391" font-family="Times New Roman,serif" font-size="10.00">E</text>
</g>
<!-- I8 -->
<g id="node9" class="node">
<title>I8</title>
<path fill="lightblue" stroke="black" d="M342,-252C342,-252 272,-252 272,-252 266,-252 260,-246 260,-240 260,-240 260,-130 260,-130 260,-124 266,-118 272,-118 272,-118 342,-118 342,-118 348,-118 354,-124 354,-130 354,-130 354,-240 354,-240 354,-246 348,-252 342,-252"/>
<polygon fill="darkblue" stroke="transparent" points="268,-227 268,-248 346,-248 346,-227 268,-227"/>
<polygon fill="none" stroke="black" points="268,-227 268,-248 346,-248 346,-227 268,-227"/>
<text text-anchor="start" x="300.5" y="-234.8" font-family="Times New Roman,serif" font-weight="bold" font-size="14.00" fill="white">I8</text>
<polygon fill="none" stroke="black" points="268,-206 268,-227 346,-227 346,-206 268,-206"/>
<text text-anchor="start" x="271" y="-212.8" font-family="Times New Roman,serif" font-size="14.00">E → E + • T</text>
<polygon fill="none" stroke="black" points="268,-185 268,-206 346,-206 346,-185 268,-185"/>
<text text-anchor="start" x="271" y="-191.8" font-family="Times New Roman,serif" font-size="14.00">F → • ( E )</text>
<polygon fill="none" stroke="black" points="268,-164 268,-185 346,-185 346,-164 268,-164"/>
<text text-anchor="start" x="271" y="-170.8" font-family="Times New Roman,serif" font-size="14.00">F → • id</text>
<polygon fill="none" stroke="black" points="268,-143 268,-164 346,-164 346,-143 268,-143"/>
<text text-anchor="start" x="271" y="-149.8" font-family="Times New Roman,serif" font-size="14.00">T → • F</text>
<polygon fill="none" stroke="black" points="268,-122 268,-143 346,-143 346,-122 268,-122"/>
<text text-anchor="start" x="271" y="-128.8" font-family="Times New Roman,serif" font-size="14.00">T → • T * F</text>
</g>
<!-- I4&#45;&gt;I8 -->
<g id="edge12" class="edge">
<title>I4&#45;&gt;I8</title>
<path fill="none" stroke="red" d="M209.67,-749.95C211.28,-744 212.8,-737.85 214,-732 223.91,-683.72 224.88,-671.18 228,-622 233.78,-530.86 221.16,-508.04 214,-417 212.36,-396.1 210.89,-390.95 210,-370 208.66,-338.47 199.01,-328.58 210,-299 215.93,-283.05 223.79,-282.8 235,-270 242.05,-261.95 243.98,-260.08 251,-252 251.71,-251.18 252.43,-250.35 253.16,-249.51"/>
<polygon fill="red" stroke="red" points="255.85,-251.75 259.73,-241.89 250.55,-247.18 255.85,-251.75"/>
<text text-anchor="middle" x="233" y="-502.5" font-family="Times New Roman,serif" font-size="10.00">+</text>
</g>
<!-- I6&#45;&gt;I2 -->
<g id="edge15" class="edge">
<title>I6&#45;&gt;I2</title>
<path fill="none" stroke="red" d="M112.39,-641.88C81.26,-608.25 46,-558.55 46,-506 46,-506 46,-506 46,-184 46,-143.76 60.34,-99.53 72.06,-70.11"/>
<polygon fill="red" stroke="red" points="75.35,-71.3 75.9,-60.72 68.87,-68.64 75.35,-71.3"/>
<text text-anchor="middle" x="50" y="-332" font-family="Times New Roman,serif" font-size="10.00">id</text>
</g>
<!-- I6&#45;&gt;I3 -->
<g id="edge13" class="edge">
<title>I6&#45;&gt;I3</title>
<path fill="none" stroke="red" d="M205.62,-642.1C220.99,-627.12 237.79,-609.83 252,-593 254.54,-589.99 257.08,-586.88 259.6,-583.71"/>
<polygon fill="red" stroke="red" points="262.44,-585.75 265.82,-575.71 256.92,-581.45 262.44,-585.75"/>
<text text-anchor="middle" x="238" y="-614" font-family="Times New Roman,serif" font-size="10.00">(</text>
</g>
<!-- I9 -->
<g id="node10" class="node">
<title>I9</title>
<path fill="lightcoral" stroke="black" d="M193.5,-530C193.5,-530 124.5,-530 124.5,-530 118.5,-530 112.5,-524 112.5,-518 112.5,-518 112.5,-492 112.5,-492 112.5,-486 118.5,-480 124.5,-480 124.5,-480 193.5,-480 193.5,-480 199.5,-480 205.5,-486 205.5,-492 205.5,-492 205.5,-518 205.5,-518 205.5,-524 199.5,-530 193.5,-530"/>
<polygon fill="darkblue" stroke="transparent" points="121,-505 121,-526 198,-526 198,-505 121,-505"/>
<polygon fill="none" stroke="black" points="121,-505 121,-526 198,-526 198,-505 121,-505"/>
<text text-anchor="start" x="153" y="-512.8" font-family="Times New Roman,serif" font-weight="bold" font-size="14.00" fill="white">I9</text>
<polygon fill="none" stroke="black" points="121,-484 121,-505 198,-505 198,-484 121,-484"/>
<text text-anchor="start" x="124" y="-490.8" font-family="Times New Roman,serif" font-size="14.00">T → T * F •</text>
</g>
<!-- I6&#45;&gt;I9 -->
<g id="edge14" class="edge">
<title>I6&#45;&gt;I9</title>
<path fill="none" stroke="blue" stroke-width="2" d="M159,-639.83C159,-608.97 159,-568.71 159,-540.44"/>
<polygon fill="blue" stroke="blue" stroke-width="2" points="162.5,-540.23 159,-530.23 155.5,-540.23 162.5,-540.23"/>
<text text-anchor="middle" x="162" y="-614" font-family="Times New Roman,serif" font-size="10.00">F</text>
</g>
<!-- I7&#45;&gt;I8 -->
<g id="edge16" class="edge">
<title>I7&#45;&gt;I8</title>
<path fill="none" stroke="red" d="M275.61,-298.92C278.71,-287.79 282.26,-274.99 285.85,-262.09"/>
<polygon fill="red" stroke="red" points="289.28,-262.8 288.59,-252.23 282.54,-260.93 289.28,-262.8"/>
<text text-anchor="middle" x="286" y="-273" font-family="Times New Roman,serif" font-size="10.00">+</text>
</g>
<!-- I10 -->
<g id="node11" class="node">
<title>I10</title>
<path fill="lightcoral" stroke="black" d="M230,-210C230,-210 168,-210 168,-210 162,-210 156,-204 156,-198 156,-198 156,-172 156,-172 156,-166 162,-160 168,-160 168,-160 230,-160 230,-160 236,-160 242,-166 242,-172 242,-172 242,-198 242,-198 242,-204 236,-210 230,-210"/>
<polygon fill="darkblue" stroke="transparent" points="164,-185 164,-206 234,-206 234,-185 164,-185"/>
<polygon fill="none" stroke="black" points="164,-185 164,-206 234,-206 234,-185 164,-185"/>
<text text-anchor="start" x="188.5" y="-192.8" font-family="Times New Roman,serif" font-weight="bold" font-size="14.00" fill="white">I10</text>
<polygon fill="none" stroke="black" points="164,-164 164,-185 234,-185 234,-164 164,-164"/>
<text text-anchor="start" x="167" y="-170.8" font-family="Times New Roman,serif" font-size="14.00">F → ( E ) •</text>
</g>
<!-- I7&#45;&gt;I10 -->
<g id="edge17" class="edge">
<title>I7&#45;&gt;I10</title>
<path fill="none" stroke="red" d="M250.29,-298.92C239.41,-274.97 225.01,-243.26 214.24,-219.54"/>
<polygon fill="red" stroke="red" points="217.33,-217.89 210.01,-210.23 210.96,-220.78 217.33,-217.89"/>
<text text-anchor="middle" x="243" y="-273" font-family="Times New Roman,serif" font-size="10.00">)</text>
</g>
<!-- I8&#45;&gt;I2 -->
<g id="edge21" class="edge">
<title>I8&#45;&gt;I2</title>
<path fill="none" stroke="red" d="M259.72,-125.42C256.87,-122.81 253.96,-120.32 251,-118 231.32,-102.59 173.93,-75.36 132.59,-56.65"/>
<polygon fill="red" stroke="red" points="133.81,-53.35 123.25,-52.44 130.93,-59.74 133.81,-53.35"/>
<text text-anchor="middle" x="226" y="-92" font-family="Times New Roman,serif" font-size="10.00">id</text>
</g>
<!-- I8&#45;&gt;I3 -->
<g id="edge18" class="edge">
<title>I8&#45;&gt;I3</title>
<path fill="none" stroke="red" d="M317.27,-252.18C319.24,-267.51 321,-283.79 322,-299 324.32,-334.03 323.51,-372.48 321.65,-406.51"/>
<polygon fill="red" stroke="red" points="318.13,-406.73 321.04,-416.92 325.12,-407.14 318.13,-406.73"/>
<text text-anchor="middle" x="326" y="-332" font-family="Times New Roman,serif" font-size="10.00">(</text>
</g>
<!-- I8&#45;&gt;I5 -->
<g id="edge20" class="edge">
<title>I8&#45;&gt;I5</title>
<path fill="none" stroke="blue" stroke-width="2" d="M340.77,-117.59C349.17,-101.06 357.83,-84.04 365.03,-69.88"/>
<polygon fill="blue" stroke="blue" stroke-width="2" points="368.34,-71.08 369.75,-60.58 362.1,-67.91 368.34,-71.08"/>
<text text-anchor="middle" x="357" y="-92" font-family="Times New Roman,serif" font-size="10.00">F</text>
</g>
<!-- I11 -->
<g id="node12" class="node">
<title>I11</title>
<path fill="orange" stroke="black" d="M256,-71C256,-71 186,-71 186,-71 180,-71 174,-65 174,-59 174,-59 174,-12 174,-12 174,-6 180,0 186,0 186,0 256,0 256,0 262,0 268,-6 268,-12 268,-12 268,-59 268,-59 268,-65 262,-71 256,-71"/>
<polygon fill="darkblue" stroke="transparent" points="182,-45.5 182,-66.5 260,-66.5 260,-45.5 182,-45.5"/>
<polygon fill="none" stroke="black" points="182,-45.5 182,-66.5 260,-66.5 260,-45.5 182,-45.5"/>
<text text-anchor="start" x="210.5" y="-53.3" font-family="Times New Roman,serif" font-weight="bold" font-size="14.00" fill="white">I11</text>
<polygon fill="none" stroke="black" points="182,-24.5 182,-45.5 260,-45.5 260,-24.5 182,-24.5"/>
<text text-anchor="start" x="185" y="-31.3" font-family="Times New Roman,serif" font-size="14.00">E → E + T •</text>
<polygon fill="none" stroke="black" points="182,-3.5 182,-24.5 260,-24.5 260,-3.5 182,-3.5"/>
<text text-anchor="start" x="185" y="-10.3" font-family="Times New Roman,serif" font-size="14.00">T → T • * F</text>
</g>
<!-- I8&#45;&gt;I11 -->
<g id="edge19" class="edge">
<title>I8&#45;&gt;I11</title>
<path fill="none" stroke="blue" stroke-width="2" d="M268.28,-117.59C260.82,-104.79 253.18,-91.7 246.28,-79.87"/>
<polygon fill="blue" stroke="blue" stroke-width="2" points="249.23,-77.97 241.17,-71.09 243.18,-81.49 249.23,-77.97"/>
<text text-anchor="middle" x="260.5" y="-92" font-family="Times New Roman,serif" font-size="10.00">T</text>
</g>
<!-- I11&#45;&gt;I6 -->
<g id="edge22" class="edge">
<title>I11&#45;&gt;I6</title>
<path fill="none" stroke="red" d="M181.15,-71.16C168.25,-84.51 155.17,-100.72 147,-118 89.59,-239.43 112.8,-283.04 103,-417 97.29,-495.01 81.88,-517.68 103,-593 106.62,-605.91 112.61,-618.81 119.35,-630.69"/>
<polygon fill="red" stroke="red" points="116.51,-632.75 124.63,-639.56 122.52,-629.17 116.51,-632.75"/>
<text text-anchor="middle" x="110" y="-332" font-family="Times New Roman,serif" font-size="10.00">*</text>
</g>
<!-- start -->
<g id="node13" class="node">
<title>start</title>
</g>
<!-- start&#45;&gt;I0 -->
<g id="edge23" class="edge">
<title>start&#45;&gt;I0</title>
<path fill="none" stroke="green" stroke-width="2" d="M272,-1169.99C272,-1162.69 272,-1153.52 272,-1143.5"/>
<polygon fill="green" stroke="green" stroke-width="2" points="275.5,-1143.22 272,-1133.22 268.5,-1143.22 275.5,-1143.22"/>
</g>
</g>
</svg>
