<?xml version="1.0" encoding="UTF-8" standalone="no"?>
<!DOCTYPE svg PUBLIC "-//W3C//DTD SVG 1.1//EN"
 "http://www.w3.org/Graphics/SVG/1.1/DTD/svg11.dtd">
<!-- Generated by graphviz version 2.46.0 (20210118.1747)
 -->
<!-- Pages: 1 -->
<svg width="518pt" height="1214pt"
 viewBox="0.00 0.00 518.00 1214.00" xmlns="http://www.w3.org/2000/svg" xmlns:xlink="http://www.w3.org/1999/xlink">
<g id="graph0" class="graph" transform="scale(1 1) rotate(0) translate(4 1210)">
<polygon fill="white" stroke="transparent" points="-4,4 -4,-1210 514,-1210 514,4 -4,4"/>
<!-- I0 -->
<g id="node1" class="node">
<title>I0</title>
<path fill="lightblue" stroke="black" d="M213,-1133C213,-1133 143,-1133 143,-1133 137,-1133 131,-1127 131,-1121 131,-1121 131,-969 131,-969 131,-963 137,-957 143,-957 143,-957 213,-957 213,-957 219,-957 225,-963 225,-969 225,-969 225,-1121 225,-1121 225,-1127 219,-1133 213,-1133"/>
<polygon fill="darkblue" stroke="transparent" points="139,-1108 139,-1129 217,-1129 217,-1108 139,-1108"/>
<polygon fill="none" stroke="black" points="139,-1108 139,-1129 217,-1129 217,-1108 139,-1108"/>
<text text-anchor="start" x="171.5" y="-1115.8" font-family="Times New Roman,serif" font-weight="bold" font-size="14.00" fill="white">I0</text>
<polygon fill="none" stroke="black" points="139,-1087 139,-1108 217,-1108 217,-1087 139,-1087"/>
<text text-anchor="start" x="142" y="-1093.8" font-family="Times New Roman,serif" font-size="14.00">E → • E + T</text>
<polygon fill="none" stroke="black" points="139,-1066 139,-1087 217,-1087 217,-1066 139,-1066"/>
<text text-anchor="start" x="142" y="-1072.8" font-family="Times New Roman,serif" font-size="14.00">E → • T</text>
<polygon fill="none" stroke="black" points="139,-1045 139,-1066 217,-1066 217,-1045 139,-1045"/>
<text text-anchor="start" x="142" y="-1051.8" font-family="Times New Roman,serif" font-size="14.00">E&#39; → • E</text>
<polygon fill="none" stroke="black" points="139,-1024 139,-1045 217,-1045 217,-1024 139,-1024"/>
<text text-anchor="start" x="142" y="-1030.8" font-family="Times New Roman,serif" font-size="14.00">F → • ( E )</text>
<polygon fill="none" stroke="black" points="139,-1003 139,-1024 217,-1024 217,-1003 139,-1003"/>
<text text-anchor="start" x="142" y="-1009.8" font-family="Times New Roman,serif" font-size="14.00">F → • id</text>
<polygon fill="none" stroke="black" points="139,-982 139,-1003 217,-1003 217,-982 139,-982"/>
<text text-anchor="start" x="142" y="-988.8" font-family="Times New Roman,serif" font-size="14.00">T → • F</text>
<polygon fill="none" stroke="black" points="139,-961 139,-982 217,-982 217,-961 139,-961"/>
<text text-anchor="start" x="142" y="-967.8" font-family="Times New Roman,serif" font-size="14.00">T → • T * F</text>
</g>
<!-- I1 -->
<g id="node2" class="node">
<title>I1</title>
<path fill="lightcoral" stroke="black" d="M61,-60.5C61,-60.5 15,-60.5 15,-60.5 9,-60.5 3,-54.5 3,-48.5 3,-48.5 3,-22.5 3,-22.5 3,-16.5 9,-10.5 15,-10.5 15,-10.5 61,-10.5 61,-10.5 67,-10.5 73,-16.5 73,-22.5 73,-22.5 73,-48.5 73,-48.5 73,-54.5 67,-60.5 61,-60.5"/>
<polygon fill="darkblue" stroke="transparent" points="11,-35.5 11,-56.5 65,-56.5 65,-35.5 11,-35.5"/>
<polygon fill="none" stroke="black" points="11,-35.5 11,-56.5 65,-56.5 65,-35.5 11,-35.5"/>
<text text-anchor="start" x="31.5" y="-43.3" font-family="Times New Roman,serif" font-weight="bold" font-size="14.00" fill="white">I1</text>
<polygon fill="none" stroke="black" points="11,-14.5 11,-35.5 65,-35.5 65,-14.5 11,-14.5"/>
<text text-anchor="start" x="14" y="-21.3" font-family="Times New Roman,serif" font-size="14.00">T → F •</text>
</g>
<!-- I0&#45;&gt;I1 -->
<g id="edge1" class="edge">
<title>I0&#45;&gt;I1</title>
<path fill="none" stroke="blue" stroke-width="2" d="M130.77,-1023.99C78.03,-998.11 0,-947.63 0,-875.5 0,-875.5 0,-875.5 0,-184 0,-143.85 13.37,-99.44 24.25,-69.95"/>
<polygon fill="blue" stroke="blue" stroke-width="2" points="27.54,-71.13 27.82,-60.54 20.99,-68.65 27.54,-71.13"/>
<text text-anchor="middle" x="3" y="-502.5" font-family="Times New Roman,serif" font-size="10.00">F</text>
</g>
<!-- I2 -->
<g id="node3" class="node">
<title>I2</title>
<path fill="orange" stroke="black" d="M287.5,-910C287.5,-910 218.5,-910 218.5,-910 212.5,-910 206.5,-904 206.5,-898 206.5,-898 206.5,-851 206.5,-851 206.5,-845 212.5,-839 218.5,-839 218.5,-839 287.5,-839 287.5,-839 293.5,-839 299.5,-845 299.5,-851 299.5,-851 299.5,-898 299.5,-898 299.5,-904 293.5,-910 287.5,-910"/>
<polygon fill="darkblue" stroke="transparent" points="215,-884.5 215,-905.5 292,-905.5 292,-884.5 215,-884.5"/>
<polygon fill="none" stroke="black" points="215,-884.5 215,-905.5 292,-905.5 292,-884.5 215,-884.5"/>
<text text-anchor="start" x="247" y="-892.3" font-family="Times New Roman,serif" font-weight="bold" font-size="14.00" fill="white">I2</text>
<polygon fill="none" stroke="black" points="215,-863.5 215,-884.5 292,-884.5 292,-863.5 215,-863.5"/>
<text text-anchor="start" x="218" y="-870.3" font-family="Times New Roman,serif" font-size="14.00">E → T •</text>
<polygon fill="none" stroke="black" points="215,-842.5 215,-863.5 292,-863.5 292,-842.5 215,-842.5"/>
<text text-anchor="start" x="218" y="-849.3" font-family="Times New Roman,serif" font-size="14.00">T → T • * F</text>
</g>
<!-- I0&#45;&gt;I2 -->
<g id="edge2" class="edge">
<title>I0&#45;&gt;I2</title>
<path fill="none" stroke="blue" stroke-width="2" d="M216.82,-956.79C222.57,-943.86 228.28,-931.03 233.41,-919.51"/>
<polygon fill="blue" stroke="blue" stroke-width="2" points="236.7,-920.73 237.57,-910.17 230.3,-917.89 236.7,-920.73"/>
<text text-anchor="middle" x="232.5" y="-931" font-family="Times New Roman,serif" font-size="10.00">T</text>
</g>
<!-- I3 -->
<g id="node4" class="node">
<title>I3</title>
<path fill="lightblue" stroke="black" d="M244,-593C244,-593 174,-593 174,-593 168,-593 162,-587 162,-581 162,-581 162,-429 162,-429 162,-423 168,-417 174,-417 174,-417 244,-417 244,-417 250,-417 256,-423 256,-429 256,-429 256,-581 256,-581 256,-587 250,-593 244,-593"/>
<polygon fill="darkblue" stroke="transparent" points="170,-568 170,-589 248,-589 248,-568 170,-568"/>
<polygon fill="none" stroke="black" points="170,-568 170,-589 248,-589 248,-568 170,-568"/>
<text text-anchor="start" x="202.5" y="-575.8" font-family="Times New Roman,serif" font-weight="bold" font-size="14.00" fill="white">I3</text>
<polygon fill="none" stroke="black" points="170,-547 170,-568 248,-568 248,-547 170,-547"/>
<text text-anchor="start" x="173" y="-553.8" font-family="Times New Roman,serif" font-size="14.00">E → • E + T</text>
<polygon fill="none" stroke="black" points="170,-526 170,-547 248,-547 248,-526 170,-526"/>
<text text-anchor="start" x="173" y="-532.8" font-family="Times New Roman,serif" font-size="14.00">E → • T</text>
<polygon fill="none" stroke="black" points="170,-505 170,-526 248,-526 248,-505 170,-505"/>
<text text-anchor="start" x="173" y="-511.8" font-family="Times New Roman,serif" font-size="14.00">F → • ( E )</text>
<polygon fill="none" stroke="black" points="170,-484 170,-505 248,-505 248,-484 170,-484"/>
<text text-anchor="start" x="173" y="-490.8" font-family="Times New Roman,serif" font-size="14.00">F → • id</text>
<polygon fill="none" stroke="black" points="170,-463 170,-484 248,-484 248,-463 170,-463"/>
<text text-anchor="start" x="173" y="-469.8" font-family="Times New Roman,serif" font-size="14.00">F → ( • E )</text>
<polygon fill="none" stroke="black" points="170,-442 170,-463 248,-463 248,-442 170,-442"/>
<text text-anchor="start" x="173" y="-448.8" font-family="Times New Roman,serif" font-size="14.00">T → • F</text>
<polygon fill="none" stroke="black" points="170,-421 170,-442 248,-442 248,-421 170,-421"/>
<text text-anchor="start" x="173" y="-427.8" font-family="Times New Roman,serif" font-size="14.00">T → • T * F</text>
</g>
<!-- I0&#45;&gt;I3 -->
<g id="edge3" class="edge">
<title>I0&#45;&gt;I3</title>
<path fill="none" stroke="red" d="M183.02,-956.96C188.59,-860.21 197.57,-704.34 203.38,-603.54"/>
<polygon fill="red" stroke="red" points="206.89,-603.54 203.97,-593.36 199.9,-603.14 206.89,-603.54"/>
<text text-anchor="middle" x="197" y="-783" font-family="Times New Roman,serif" font-size="10.00">(</text>
</g>
<!-- I4 -->
<g id="node5" class="node">
<title>I4</title>
<path fill="lightcoral" stroke="black" d="M434,-60.5C434,-60.5 386,-60.5 386,-60.5 380,-60.5 374,-54.5 374,-48.5 374,-48.5 374,-22.5 374,-22.5 374,-16.5 380,-10.5 386,-10.5 386,-10.5 434,-10.5 434,-10.5 440,-10.5 446,-16.5 446,-22.5 446,-22.5 446,-48.5 446,-48.5 446,-54.5 440,-60.5 434,-60.5"/>
<polygon fill="darkblue" stroke="transparent" points="382,-35.5 382,-56.5 438,-56.5 438,-35.5 382,-35.5"/>
<polygon fill="none" stroke="black" points="382,-35.5 382,-56.5 438,-56.5 438,-35.5 382,-35.5"/>
<text text-anchor="start" x="403.5" y="-43.3" font-family="Times New Roman,serif" font-weight="bold" font-size="14.00" fill="white">I4</text>
<polygon fill="none" stroke="black" points="382,-14.5 382,-35.5 438,-35.5 438,-14.5 382,-14.5"/>
<text text-anchor="start" x="385" y="-21.3" font-family="Times New Roman,serif" font-size="14.00">F → id •</text>
</g>
<!-- I0&#45;&gt;I4 -->
<g id="edge4" class="edge">
<title>I0&#45;&gt;I4</title>
<path fill="none" stroke="red" d="M225.11,-1040.85C314.97,-1032.02 502,-998.82 502,-875.5 502,-875.5 502,-875.5 502,-184 502,-138.76 470.45,-95.92 444.31,-68.19"/>
<polygon fill="red" stroke="red" points="446.58,-65.51 437.11,-60.78 441.56,-70.39 446.58,-65.51"/>
<text text-anchor="middle" x="506" y="-502.5" font-family="Times New Roman,serif" font-size="10.00">id</text>
</g>
<!-- I5 -->
<g id="node6" class="node">
<title>I5</title>
<path fill="lightgreen" stroke="black" d="M139,-821C139,-821 69,-821 69,-821 63,-821 57,-815 57,-809 57,-809 57,-762 57,-762 57,-756 63,-750 69,-750 69,-750 139,-750 139,-750 145,-750 151,-756 151,-762 151,-762 151,-809 151,-809 151,-815 145,-821 139,-821"/>
<polygon fill="darkblue" stroke="transparent" points="65,-795.5 65,-816.5 143,-816.5 143,-795.5 65,-795.5"/>
<polygon fill="none" stroke="black" points="65,-795.5 65,-816.5 143,-816.5 143,-795.5 65,-795.5"/>
<text text-anchor="start" x="97.5" y="-803.3" font-family="Times New Roman,serif" font-weight="bold" font-size="14.00" fill="white">I5</text>
<polygon fill="none" stroke="black" points="65,-774.5 65,-795.5 143,-795.5 143,-774.5 65,-774.5"/>
<text text-anchor="start" x="68" y="-781.3" font-family="Times New Roman,serif" font-size="14.00">E → E • + T</text>
<polygon fill="none" stroke="black" points="65,-753.5 65,-774.5 143,-774.5 143,-753.5 65,-753.5"/>
<text text-anchor="start" x="68" y="-760.3" font-family="Times New Roman,serif" font-size="14.00">E&#39; → E •</text>
</g>
<!-- I0&#45;&gt;I5 -->
<g id="edge5" class="edge">
<title>I0&#45;&gt;I5</title>
<path fill="none" stroke="blue" stroke-width="2" d="M152.95,-956.82C140.77,-914.46 126.67,-865.37 116.73,-830.81"/>
<polygon fill="blue" stroke="blue" stroke-width="2" points="120.05,-829.66 113.92,-821.02 113.32,-831.6 120.05,-829.66"/>
<text text-anchor="middle" x="151" y="-931" font-family="Times New Roman,serif" font-size="10.00">E</text>
</g>
<!-- I6 -->
<g id="node7" class="node">
<title>I6</title>
<path fill="lightblue" stroke="black" d="M340.5,-732C340.5,-732 271.5,-732 271.5,-732 265.5,-732 259.5,-726 259.5,-720 259.5,-720 259.5,-652 259.5,-652 259.5,-646 265.5,-640 271.5,-640 271.5,-640 340.5,-640 340.5,-640 346.5,-640 352.5,-646 352.5,-652 352.5,-652 352.5,-720 352.5,-720 352.5,-726 346.5,-732 340.5,-732"/>
<polygon fill="darkblue" stroke="transparent" points="268,-707 268,-728 345,-728 345,-707 268,-707"/>
<polygon fill="none" stroke="black" points="268,-707 268,-728 345,-728 345,-707 268,-707"/>
<text text-anchor="start" x="300" y="-714.8" font-family="Times New Roman,serif" font-weight="bold" font-size="14.00" fill="white">I6</text>
<polygon fill="none" stroke="black" points="268,-686 268,-707 345,-707 345,-686 268,-686"/>
<text text-anchor="start" x="271" y="-692.8" font-family="Times New Roman,serif" font-size="14.00">F → • ( E )</text>
<polygon fill="none" stroke="black" points="268,-665 268,-686 345,-686 345,-665 268,-665"/>
<text text-anchor="start" x="271" y="-671.8" font-family="Times New Roman,serif" font-size="14.00">F → • id</text>
<polygon fill="none" stroke="black" points="268,-644 268,-665 345,-665 345,-644 268,-644"/>
<text text-anchor="start" x="271" y="-650.8" font-family="Times New Roman,serif" font-size="14.00">T → T * • F</text>
</g>
<!-- I2&#45;&gt;I6 -->
<g id="edge6" class="edge">
<title>I2&#45;&gt;I6</title>
<path fill="none" stroke="red" d="M262.84,-838.86C270.57,-811.67 281.47,-773.31 290.38,-741.95"/>
<polygon fill="red" stroke="red" points="293.84,-742.61 293.2,-732.03 287.1,-740.7 293.84,-742.61"/>
<text text-anchor="middle" x="290" y="-783" font-family="Times New Roman,serif" font-size="10.00">*</text>
</g>
<!-- I3&#45;&gt;I1 -->
<g id="edge7" class="edge">
<title>I3&#45;&gt;I1</title>
<path fill="none" stroke="blue" stroke-width="2" d="M161.63,-446.74C124.87,-398.28 76.91,-325.21 57,-252 40.06,-189.69 37.3,-113.87 37.32,-70.8"/>
<polygon fill="blue" stroke="blue" stroke-width="2" points="40.82,-70.6 37.38,-60.58 33.82,-70.56 40.82,-70.6"/>
<text text-anchor="middle" x="69" y="-273" font-family="Times New Roman,serif" font-size="10.00">F</text>
</g>
<!-- I3&#45;&gt;I2 -->
<g id="edge8" class="edge">
<title>I3&#45;&gt;I2</title>
<path fill="none" stroke="blue" stroke-width="2" d="M219.44,-593.19C228.31,-667.3 240.69,-770.66 247.66,-828.93"/>
<polygon fill="blue" stroke="blue" stroke-width="2" points="244.2,-829.41 248.86,-838.93 251.15,-828.58 244.2,-829.41"/>
<text text-anchor="middle" x="238.5" y="-683.5" font-family="Times New Roman,serif" font-size="10.00">T</text>
</g>
<!-- I3&#45;&gt;I3 -->
<g id="edge9" class="edge">
<title>I3&#45;&gt;I3</title>
<path fill="none" stroke="red" d="M256.04,-525.07C266.43,-523.18 274,-516.49 274,-505 274,-497.46 270.74,-491.98 265.56,-488.58"/>
<polygon fill="red" stroke="red" points="266.63,-485.24 256.04,-484.93 264.12,-491.78 266.63,-485.24"/>
<text text-anchor="middle" x="276" y="-502.5" font-family="Times New Roman,serif" font-size="10.00">(</text>
</g>
<!-- I3&#45;&gt;I4 -->
<g id="edge10" class="edge">
<title>I3&#45;&gt;I4</title>
<path fill="none" stroke="red" d="M245.55,-416.94C264.13,-372.86 287.14,-318.53 308,-270 338.68,-198.63 375.27,-115.3 395.22,-70"/>
<polygon fill="red" stroke="red" points="398.51,-71.22 399.34,-60.66 392.1,-68.4 398.51,-71.22"/>
<text text-anchor="middle" x="312" y="-273" font-family="Times New Roman,serif" font-size="10.00">id</text>
</g>
<!-- I7 -->
<g id="node8" class="node">
<title>I7</title>
<path fill="lightblue" stroke="black" d="M204,-370C204,-370 134,-370 134,-370 128,-370 122,-364 122,-358 122,-358 122,-311 122,-311 122,-305 128,-299 134,-299 134,-299 204,-299 204,-299 210,-299 216,-305 216,-311 216,-311 216,-358 216,-358 216,-364 210,-370 204,-370"/>
<polygon fill="darkblue" stroke="transparent" points="130,-344.5 130,-365.5 208,-365.5 208,-344.5 130,-344.5"/>
<polygon fill="none" stroke="black" points="130,-344.5 130,-365.5 208,-365.5 208,-344.5 130,-344.5"/>
<text text-anchor="start" x="162.5" y="-352.3" font-family="Times New Roman,serif" font-weight="bold" font-size="14.00" fill="white">I7</text>
<polygon fill="none" stroke="black" points="130,-323.5 130,-344.5 208,-344.5 208,-323.5 130,-323.5"/>
<text text-anchor="start" x="133" y="-330.3" font-family="Times New Roman,serif" font-size="14.00">E → E • + T</text>
<polygon fill="none" stroke="black" points="130,-302.5 130,-323.5 208,-323.5 208,-302.5 130,-302.5"/>
<text text-anchor="start" x="133" y="-309.3" font-family="Times New Roman,serif" font-size="14.00">F → ( E • )</text>
</g>
<!-- I3&#45;&gt;I7 -->
<g id="edge11" class="edge">
<title>I3&#45;&gt;I7</title>
<path fill="none" stroke="blue" stroke-width="2" d="M188.3,-416.79C185.29,-404.12 182.31,-391.55 179.61,-380.21"/>
<polygon fill="blue" stroke="blue" stroke-width="2" points="182.95,-379.1 177.23,-370.17 176.14,-380.71 182.95,-379.1"/>
<text text-anchor="middle" x="187" y="-391" font-family="Times New Roman,serif" font-size="10.00">E</text>
</g>
<!-- I8 -->
<g id="node9" class="node">
<title>I8</title>
<path fill="lightblue" stroke="black" d="M252,-252C252,-252 182,-252 182,-252 176,-252 170,-246 170,-240 170,-240 170,-130 170,-130 170,-124 176,-118 182,-118 182,-118 252,-118 252,-118 258,-118 264,-124 264,-130 264,-130 264,-240 264,-240 264,-246 258,-252 252,-252"/>
<polygon fill="darkblue" stroke="transparent" points="178,-227 178,-248 256,-248 256,-227 178,-227"/>
<polygon fill="none" stroke="black" points="178,-227 178,-248 256,-248 256,-227 178,-227"/>
<text text-anchor="start" x="210.5" y="-234.8" font-family="Times New Roman,serif" font-weight="bold" font-size="14.00" fill="white">I8</text>
<polygon fill="none" stroke="black" points="178,-206 178,-227 256,-227 256,-206 178,-206"/>
<text text-anchor="start" x="181" y="-212.8" font-family="Times New Roman,serif" font-size="14.00">E → E + • T</text>
<polygon fill="none" stroke="black" points="178,-185 178,-206 256,-206 256,-185 178,-185"/>
<text text-anchor="start" x="181" y="-191.8" font-family="Times New Roman,serif" font-size="14.00">F → • ( E )</text>
<polygon fill="none" stroke="black" points="178,-164 178,-185 256,-185 256,-164 178,-164"/>
<text text-anchor="start" x="181" y="-170.8" font-family="Times New Roman,serif" font-size="14.00">F → • id</text>
<polygon fill="none" stroke="black" points="178,-143 178,-164 256,-164 256,-143 178,-143"/>
<text text-anchor="start" x="181" y="-149.8" font-family="Times New Roman,serif" font-size="14.00">T → • F</text>
<polygon fill="none" stroke="black" points="178,-122 178,-143 256,-143 256,-122 178,-122"/>
<text text-anchor="start" x="181" y="-128.8" font-family="Times New Roman,serif" font-size="14.00">T → • T * F</text>
</g>
<!-- I5&#45;&gt;I8 -->
<g id="edge12" class="edge">
<title>I5&#45;&gt;I8</title>
<path fill="none" stroke="red" d="M96.32,-749.8C79.87,-667.64 47.75,-456.3 113,-299 119.86,-282.45 128.11,-282.44 141,-270 149.6,-261.69 152.67,-260.58 161,-252 161.64,-251.34 162.28,-250.67 162.93,-250"/>
<polygon fill="red" stroke="red" points="165.56,-252.31 169.84,-242.62 160.45,-247.53 165.56,-252.31"/>
<text text-anchor="middle" x="85" y="-502.5" font-family="Times New Roman,serif" font-size="10.00">+</text>
</g>
<!-- I6&#45;&gt;I3 -->
<g id="edge14" class="edge">
<title>I6&#45;&gt;I3</title>
<path fill="none" stroke="red" d="M281.52,-639.83C275.23,-628.22 268.22,-615.27 261.1,-602.14"/>
<polygon fill="red" stroke="red" points="264,-600.15 256.16,-593.03 257.85,-603.49 264,-600.15"/>
<text text-anchor="middle" x="273" y="-614" font-family="Times New Roman,serif" font-size="10.00">(</text>
</g>
<!-- I6&#45;&gt;I4 -->
<g id="edge15" class="edge">
<title>I6&#45;&gt;I4</title>
<path fill="none" stroke="red" d="M352.53,-663.54C381.19,-647.94 416.3,-624.13 437,-593 458.91,-560.04 456,-545.58 456,-506 456,-506 456,-506 456,-184 456,-143.39 439.91,-99.23 426.77,-69.92"/>
<polygon fill="red" stroke="red" points="429.82,-68.18 422.45,-60.57 423.47,-71.12 429.82,-68.18"/>
<text text-anchor="middle" x="460" y="-332" font-family="Times New Roman,serif" font-size="10.00">id</text>
</g>
<!-- I9 -->
<g id="node10" class="node">
<title>I9</title>
<path fill="lightcoral" stroke="black" d="M415.5,-530C415.5,-530 346.5,-530 346.5,-530 340.5,-530 334.5,-524 334.5,-518 334.5,-518 334.5,-492 334.5,-492 334.5,-486 340.5,-480 346.5,-480 346.5,-480 415.5,-480 415.5,-480 421.5,-480 427.5,-486 427.5,-492 427.5,-492 427.5,-518 427.5,-518 427.5,-524 421.5,-530 415.5,-530"/>
<polygon fill="darkblue" stroke="transparent" points="343,-505 343,-526 420,-526 420,-505 343,-505"/>
<polygon fill="none" stroke="black" points="343,-505 343,-526 420,-526 420,-505 343,-505"/>
<text text-anchor="start" x="375" y="-512.8" font-family="Times New Roman,serif" font-weight="bold" font-size="14.00" fill="white">I9</text>
<polygon fill="none" stroke="black" points="343,-484 343,-505 420,-505 420,-484 343,-484"/>
<text text-anchor="start" x="346" y="-490.8" font-family="Times New Roman,serif" font-size="14.00">T → T * F •</text>
</g>
<!-- I6&#45;&gt;I9 -->
<g id="edge13" class="edge">
<title>I6&#45;&gt;I9</title>
<path fill="none" stroke="blue" stroke-width="2" d="M324.93,-639.83C337.97,-608.7 355.02,-568 366.88,-539.69"/>
<polygon fill="blue" stroke="blue" stroke-width="2" points="370.21,-540.81 370.85,-530.23 363.75,-538.1 370.21,-540.81"/>
<text text-anchor="middle" x="339" y="-614" font-family="Times New Roman,serif" font-size="10.00">F</text>
</g>
<!-- I7&#45;&gt;I8 -->
<g id="edge16" class="edge">
<title>I7&#45;&gt;I8</title>
<path fill="none" stroke="red" d="M180.25,-298.92C183.88,-287.79 188.04,-274.99 192.24,-262.09"/>
<polygon fill="red" stroke="red" points="195.68,-262.82 195.45,-252.23 189.02,-260.66 195.68,-262.82"/>
<text text-anchor="middle" x="192" y="-273" font-family="Times New Roman,serif" font-size="10.00">+</text>
</g>
<!-- I10 -->
<g id="node11" class="node">
<title>I10</title>
<path fill="lightcoral" stroke="black" d="M140,-210C140,-210 78,-210 78,-210 72,-210 66,-204 66,-198 66,-198 66,-172 66,-172 66,-166 72,-160 78,-160 78,-160 140,-160 140,-160 146,-160 152,-166 152,-172 152,-172 152,-198 152,-198 152,-204 146,-210 140,-210"/>
<polygon fill="darkblue" stroke="transparent" points="74,-185 74,-206 144,-206 144,-185 74,-185"/>
<polygon fill="none" stroke="black" points="74,-185 74,-206 144,-206 144,-185 74,-185"/>
<text text-anchor="start" x="98.5" y="-192.8" font-family="Times New Roman,serif" font-weight="bold" font-size="14.00" fill="white">I10</text>
<polygon fill="none" stroke="black" points="74,-164 74,-185 144,-185 144,-164 74,-164"/>
<text text-anchor="start" x="77" y="-170.8" font-family="Times New Roman,serif" font-size="14.00">F → ( E ) •</text>
</g>
<!-- I7&#45;&gt;I10 -->
<g id="edge17" class="edge">
<title>I7&#45;&gt;I10</title>
<path fill="none" stroke="red" d="M154.93,-298.92C145.19,-274.97 132.29,-243.26 122.64,-219.54"/>
<polygon fill="red" stroke="red" points="125.87,-218.18 118.86,-210.23 119.38,-220.81 125.87,-218.18"/>
<text text-anchor="middle" x="149" y="-273" font-family="Times New Roman,serif" font-size="10.00">)</text>
</g>
<!-- I8&#45;&gt;I1 -->
<g id="edge18" class="edge">
<title>I8&#45;&gt;I1</title>
<path fill="none" stroke="blue" stroke-width="2" d="M169.69,-126.19C166.83,-123.34 163.92,-120.59 161,-118 136.78,-96.49 106.47,-76.34 82,-61.46"/>
<polygon fill="blue" stroke="blue" stroke-width="2" points="83.65,-58.37 73.27,-56.22 80.04,-64.37 83.65,-58.37"/>
<text text-anchor="middle" x="139" y="-92" font-family="Times New Roman,serif" font-size="10.00">F</text>
</g>
<!-- I8&#45;&gt;I3 -->
<g id="edge19" class="edge">
<title>I8&#45;&gt;I3</title>
<path fill="none" stroke="red" d="M222.48,-252.28C223.53,-267.61 224.46,-283.87 225,-299 226.11,-330.54 226.87,-338.5 225,-370 224.29,-381.88 223.24,-394.31 222,-406.62"/>
<polygon fill="red" stroke="red" points="218.48,-406.61 220.92,-416.92 225.44,-407.34 218.48,-406.61"/>
<text text-anchor="middle" x="229" y="-332" font-family="Times New Roman,serif" font-size="10.00">(</text>
</g>
<!-- I8&#45;&gt;I4 -->
<g id="edge20" class="edge">
<title>I8&#45;&gt;I4</title>
<path fill="none" stroke="red" d="M245.94,-117.63C252.7,-107.07 260.69,-97.01 270,-89 271.93,-87.34 324.18,-67.96 364.29,-53.22"/>
<polygon fill="red" stroke="red" points="365.74,-56.42 373.92,-49.68 363.33,-49.85 365.74,-56.42"/>
<text text-anchor="middle" x="274" y="-92" font-family="Times New Roman,serif" font-size="10.00">id</text>
</g>
<!-- I11 -->
<g id="node12" class="node">
<title>I11</title>
<path fill="orange" stroke="black" d="M295,-71C295,-71 225,-71 225,-71 219,-71 213,-65 213,-59 213,-59 213,-12 213,-12 213,-6 219,0 225,0 225,0 295,0 295,0 301,0 307,-6 307,-12 307,-12 307,-59 307,-59 307,-65 301,-71 295,-71"/>
<polygon fill="darkblue" stroke="transparent" points="221,-45.5 221,-66.5 299,-66.5 299,-45.5 221,-45.5"/>
<polygon fill="none" stroke="black" points="221,-45.5 221,-66.5 299,-66.5 299,-45.5 221,-45.5"/>
<text text-anchor="start" x="249.5" y="-53.3" font-family="Times New Roman,serif" font-weight="bold" font-size="14.00" fill="white">I11</text>
<polygon fill="none" stroke="black" points="221,-24.5 221,-45.5 299,-45.5 299,-24.5 221,-24.5"/>
<text text-anchor="start" x="224" y="-31.3" font-family="Times New Roman,serif" font-size="14.00">E → E + T •</text>
<polygon fill="none" stroke="black" points="221,-3.5 221,-24.5 299,-24.5 299,-3.5 221,-3.5"/>
<text text-anchor="start" x="224" y="-10.3" font-family="Times New Roman,serif" font-size="14.00">T → T • * F</text>
</g>
<!-- I8&#45;&gt;I11 -->
<g id="edge21" class="edge">
<title>I8&#45;&gt;I11</title>
<path fill="none" stroke="blue" stroke-width="2" d="M221.83,-117.79C223.56,-107.99 225.88,-98.12 229,-89 230,-86.09 231.16,-83.16 232.45,-80.26"/>
<polygon fill="blue" stroke="blue" stroke-width="2" points="235.67,-81.65 236.92,-71.13 229.38,-78.57 235.67,-81.65"/>
<text text-anchor="middle" x="232.5" y="-92" font-family="Times New Roman,serif" font-size="10.00">T</text>
</g>
<!-- I11&#45;&gt;I6 -->
<g id="edge22" class="edge">
<title>I11&#45;&gt;I6</title>
<path fill="none" stroke="red" d="M275.72,-71.14C278.04,-77.03 280.24,-83.13 282,-89 305.5,-167.4 308.41,-188.5 316,-270 327.94,-398.25 318.33,-549.7 311.45,-629.45"/>
<polygon fill="red" stroke="red" points="307.93,-629.48 310.54,-639.75 314.9,-630.09 307.93,-629.48"/>
<text text-anchor="middle" x="324" y="-332" font-family="Times New Roman,serif" font-size="10.00">*</text>
</g>
<!-- start -->
<g id="node13" class="node">
<title>start</title>
</g>
<!-- start&#45;&gt;I0 -->
<g id="edge23" class="edge">
<title>start&#45;&gt;I0</title>
<path fill="none" stroke="green" stroke-width="2" d="M178,-1169.99C178,-1162.69 178,-1153.52 178,-1143.5"/>
<polygon fill="green" stroke="green" stroke-width="2" points="181.5,-1143.22 178,-1133.22 174.5,-1143.22 181.5,-1143.22"/>
</g>
</g>
</svg>
