<?xml version="1.0" encoding="UTF-8" standalone="no"?>
<!DOCTYPE svg PUBLIC "-//W3C//DTD SVG 1.1//EN"
 "http://www.w3.org/Graphics/SVG/1.1/DTD/svg11.dtd">
<!-- Generated by graphviz version 2.46.0 (20210118.1747)
 -->
<!-- Pages: 1 -->
<svg width="512pt" height="1193pt"
 viewBox="0.00 0.00 511.50 1193.00" xmlns="http://www.w3.org/2000/svg" xmlns:xlink="http://www.w3.org/1999/xlink">
<g id="graph0" class="graph" transform="scale(1 1) rotate(0) translate(4 1189)">
<polygon fill="white" stroke="transparent" points="-4,4 -4,-1189 507.5,-1189 507.5,4 -4,4"/>
<!-- I0 -->
<g id="node1" class="node">
<title>I0</title>
<path fill="lightblue" stroke="black" d="M166.5,-1112C166.5,-1112 96.5,-1112 96.5,-1112 90.5,-1112 84.5,-1106 84.5,-1100 84.5,-1100 84.5,-948 84.5,-948 84.5,-942 90.5,-936 96.5,-936 96.5,-936 166.5,-936 166.5,-936 172.5,-936 178.5,-942 178.5,-948 178.5,-948 178.5,-1100 178.5,-1100 178.5,-1106 172.5,-1112 166.5,-1112"/>
<polygon fill="darkblue" stroke="transparent" points="92.5,-1087 92.5,-1108 170.5,-1108 170.5,-1087 92.5,-1087"/>
<polygon fill="none" stroke="black" points="92.5,-1087 92.5,-1108 170.5,-1108 170.5,-1087 92.5,-1087"/>
<text text-anchor="start" x="125" y="-1094.8" font-family="Times New Roman,serif" font-weight="bold" font-size="14.00" fill="white">I0</text>
<polygon fill="none" stroke="black" points="92.5,-1066 92.5,-1087 170.5,-1087 170.5,-1066 92.5,-1066"/>
<text text-anchor="start" x="95.5" y="-1072.8" font-family="Times New Roman,serif" font-size="14.00">E&#39; → • E</text>
<polygon fill="none" stroke="black" points="92.5,-1045 92.5,-1066 170.5,-1066 170.5,-1045 92.5,-1045"/>
<text text-anchor="start" x="95.5" y="-1051.8" font-family="Times New Roman,serif" font-size="14.00">E → • E + T</text>
<polygon fill="none" stroke="black" points="92.5,-1024 92.5,-1045 170.5,-1045 170.5,-1024 92.5,-1024"/>
<text text-anchor="start" x="95.5" y="-1030.8" font-family="Times New Roman,serif" font-size="14.00">E → • T</text>
<polygon fill="none" stroke="black" points="92.5,-1003 92.5,-1024 170.5,-1024 170.5,-1003 92.5,-1003"/>
<text text-anchor="start" x="95.5" y="-1009.8" font-family="Times New Roman,serif" font-size="14.00">T → • T * F</text>
<polygon fill="none" stroke="black" points="92.5,-982 92.5,-1003 170.5,-1003 170.5,-982 92.5,-982"/>
<text text-anchor="start" x="95.5" y="-988.8" font-family="Times New Roman,serif" font-size="14.00">T → • F</text>
<polygon fill="none" stroke="black" points="92.5,-961 92.5,-982 170.5,-982 170.5,-961 92.5,-961"/>
<text text-anchor="start" x="95.5" y="-967.8" font-family="Times New Roman,serif" font-size="14.00">F → • ( E )</text>
<polygon fill="none" stroke="black" points="92.5,-940 92.5,-961 170.5,-961 170.5,-940 92.5,-940"/>
<text text-anchor="start" x="95.5" y="-946.8" font-family="Times New Roman,serif" font-size="14.00">F → • id</text>
</g>
<!-- I1 -->
<g id="node2" class="node">
<title>I1</title>
<path fill="lightgreen" stroke="black" d="M259.5,-889C259.5,-889 189.5,-889 189.5,-889 183.5,-889 177.5,-883 177.5,-877 177.5,-877 177.5,-830 177.5,-830 177.5,-824 183.5,-818 189.5,-818 189.5,-818 259.5,-818 259.5,-818 265.5,-818 271.5,-824 271.5,-830 271.5,-830 271.5,-877 271.5,-877 271.5,-883 265.5,-889 259.5,-889"/>
<polygon fill="darkblue" stroke="transparent" points="185.5,-863.5 185.5,-884.5 263.5,-884.5 263.5,-863.5 185.5,-863.5"/>
<polygon fill="none" stroke="black" points="185.5,-863.5 185.5,-884.5 263.5,-884.5 263.5,-863.5 185.5,-863.5"/>
<text text-anchor="start" x="218" y="-871.3" font-family="Times New Roman,serif" font-weight="bold" font-size="14.00" fill="white">I1</text>
<polygon fill="none" stroke="black" points="185.5,-842.5 185.5,-863.5 263.5,-863.5 263.5,-842.5 185.5,-842.5"/>
<text text-anchor="start" x="188.5" y="-849.3" font-family="Times New Roman,serif" font-size="14.00">E&#39; → E •</text>
<polygon fill="none" stroke="black" points="185.5,-821.5 185.5,-842.5 263.5,-842.5 263.5,-821.5 185.5,-821.5"/>
<text text-anchor="start" x="188.5" y="-828.3" font-family="Times New Roman,serif" font-size="14.00">E → E • + T</text>
</g>
<!-- I0&#45;&gt;I1 -->
<g id="edge1" class="edge">
<title>I0&#45;&gt;I1</title>
<path fill="none" stroke="blue" stroke-width="2" d="M178.54,-937.76C186.08,-924.1 193.6,-910.48 200.31,-898.32"/>
<polygon fill="blue" stroke="blue" stroke-width="2" points="203.5,-899.79 205.27,-889.34 197.37,-896.4 203.5,-899.79"/>
<text text-anchor="middle" x="197.5" y="-910" font-family="Times New Roman,serif" font-size="10.00">E</text>
</g>
<!-- I2 -->
<g id="node3" class="node">
<title>I2</title>
<path fill="orange" stroke="black" d="M81,-307C81,-307 12,-307 12,-307 6,-307 0,-301 0,-295 0,-295 0,-248 0,-248 0,-242 6,-236 12,-236 12,-236 81,-236 81,-236 87,-236 93,-242 93,-248 93,-248 93,-295 93,-295 93,-301 87,-307 81,-307"/>
<polygon fill="darkblue" stroke="transparent" points="8.5,-281.5 8.5,-302.5 85.5,-302.5 85.5,-281.5 8.5,-281.5"/>
<polygon fill="none" stroke="black" points="8.5,-281.5 8.5,-302.5 85.5,-302.5 85.5,-281.5 8.5,-281.5"/>
<text text-anchor="start" x="40.5" y="-289.3" font-family="Times New Roman,serif" font-weight="bold" font-size="14.00" fill="white">I2</text>
<polygon fill="none" stroke="black" points="8.5,-260.5 8.5,-281.5 85.5,-281.5 85.5,-260.5 8.5,-260.5"/>
<text text-anchor="start" x="11.5" y="-267.3" font-family="Times New Roman,serif" font-size="14.00">E → T •</text>
<polygon fill="none" stroke="black" points="8.5,-239.5 8.5,-260.5 85.5,-260.5 85.5,-239.5 8.5,-239.5"/>
<text text-anchor="start" x="11.5" y="-246.3" font-family="Times New Roman,serif" font-size="14.00">T → T • * F</text>
</g>
<!-- I0&#45;&gt;I2 -->
<g id="edge2" class="edge">
<title>I0&#45;&gt;I2</title>
<path fill="none" stroke="blue" stroke-width="2" d="M84.42,-961.27C65.69,-930.8 48.5,-892.49 48.5,-854.5 48.5,-854.5 48.5,-854.5 48.5,-501 48.5,-437.33 47.71,-363.68 47.13,-317.59"/>
<polygon fill="blue" stroke="blue" stroke-width="2" points="50.62,-317.29 46.99,-307.34 43.62,-317.38 50.62,-317.29"/>
<text text-anchor="middle" x="52" y="-701.5" font-family="Times New Roman,serif" font-size="10.00">T</text>
</g>
<!-- I3 -->
<g id="node4" class="node">
<title>I3</title>
<path fill="lightcoral" stroke="black" d="M169.5,-296.5C169.5,-296.5 123.5,-296.5 123.5,-296.5 117.5,-296.5 111.5,-290.5 111.5,-284.5 111.5,-284.5 111.5,-258.5 111.5,-258.5 111.5,-252.5 117.5,-246.5 123.5,-246.5 123.5,-246.5 169.5,-246.5 169.5,-246.5 175.5,-246.5 181.5,-252.5 181.5,-258.5 181.5,-258.5 181.5,-284.5 181.5,-284.5 181.5,-290.5 175.5,-296.5 169.5,-296.5"/>
<polygon fill="darkblue" stroke="transparent" points="119.5,-271.5 119.5,-292.5 173.5,-292.5 173.5,-271.5 119.5,-271.5"/>
<polygon fill="none" stroke="black" points="119.5,-271.5 119.5,-292.5 173.5,-292.5 173.5,-271.5 119.5,-271.5"/>
<text text-anchor="start" x="140" y="-279.3" font-family="Times New Roman,serif" font-weight="bold" font-size="14.00" fill="white">I3</text>
<polygon fill="none" stroke="black" points="119.5,-250.5 119.5,-271.5 173.5,-271.5 173.5,-250.5 119.5,-250.5"/>
<text text-anchor="start" x="122.5" y="-257.3" font-family="Times New Roman,serif" font-size="14.00">T → F •</text>
</g>
<!-- I0&#45;&gt;I3 -->
<g id="edge3" class="edge">
<title>I0&#45;&gt;I3</title>
<path fill="none" stroke="blue" stroke-width="2" d="M104.19,-935.94C98.14,-910.01 93.5,-881.34 93.5,-854.5 93.5,-854.5 93.5,-854.5 93.5,-501 93.5,-430.35 117.84,-350.52 133.53,-306.39"/>
<polygon fill="blue" stroke="blue" stroke-width="2" points="136.91,-307.35 137.02,-296.75 130.33,-304.96 136.91,-307.35"/>
<text text-anchor="middle" x="96.5" y="-701.5" font-family="Times New Roman,serif" font-size="10.00">F</text>
</g>
<!-- I4 -->
<g id="node5" class="node">
<title>I4</title>
<path fill="lightblue" stroke="black" d="M258.5,-590C258.5,-590 188.5,-590 188.5,-590 182.5,-590 176.5,-584 176.5,-578 176.5,-578 176.5,-426 176.5,-426 176.5,-420 182.5,-414 188.5,-414 188.5,-414 258.5,-414 258.5,-414 264.5,-414 270.5,-420 270.5,-426 270.5,-426 270.5,-578 270.5,-578 270.5,-584 264.5,-590 258.5,-590"/>
<polygon fill="darkblue" stroke="transparent" points="184.5,-565 184.5,-586 262.5,-586 262.5,-565 184.5,-565"/>
<polygon fill="none" stroke="black" points="184.5,-565 184.5,-586 262.5,-586 262.5,-565 184.5,-565"/>
<text text-anchor="start" x="217" y="-572.8" font-family="Times New Roman,serif" font-weight="bold" font-size="14.00" fill="white">I4</text>
<polygon fill="none" stroke="black" points="184.5,-544 184.5,-565 262.5,-565 262.5,-544 184.5,-544"/>
<text text-anchor="start" x="187.5" y="-550.8" font-family="Times New Roman,serif" font-size="14.00">F → ( • E )</text>
<polygon fill="none" stroke="black" points="184.5,-523 184.5,-544 262.5,-544 262.5,-523 184.5,-523"/>
<text text-anchor="start" x="187.5" y="-529.8" font-family="Times New Roman,serif" font-size="14.00">E → • E + T</text>
<polygon fill="none" stroke="black" points="184.5,-502 184.5,-523 262.5,-523 262.5,-502 184.5,-502"/>
<text text-anchor="start" x="187.5" y="-508.8" font-family="Times New Roman,serif" font-size="14.00">E → • T</text>
<polygon fill="none" stroke="black" points="184.5,-481 184.5,-502 262.5,-502 262.5,-481 184.5,-481"/>
<text text-anchor="start" x="187.5" y="-487.8" font-family="Times New Roman,serif" font-size="14.00">T → • T * F</text>
<polygon fill="none" stroke="black" points="184.5,-460 184.5,-481 262.5,-481 262.5,-460 184.5,-460"/>
<text text-anchor="start" x="187.5" y="-466.8" font-family="Times New Roman,serif" font-size="14.00">T → • F</text>
<polygon fill="none" stroke="black" points="184.5,-439 184.5,-460 262.5,-460 262.5,-439 184.5,-439"/>
<text text-anchor="start" x="187.5" y="-445.8" font-family="Times New Roman,serif" font-size="14.00">F → • ( E )</text>
<polygon fill="none" stroke="black" points="184.5,-418 184.5,-439 262.5,-439 262.5,-418 184.5,-418"/>
<text text-anchor="start" x="187.5" y="-424.8" font-family="Times New Roman,serif" font-size="14.00">F → • id</text>
</g>
<!-- I0&#45;&gt;I4 -->
<g id="edge4" class="edge">
<title>I0&#45;&gt;I4</title>
<path fill="none" stroke="red" d="M146.9,-935.96C163.3,-843.26 189.2,-696.85 206.27,-600.37"/>
<polygon fill="red" stroke="red" points="209.76,-600.78 208.05,-590.32 202.86,-599.56 209.76,-600.78"/>
<text text-anchor="middle" x="174.5" y="-792" font-family="Times New Roman,serif" font-size="10.00">(</text>
</g>
<!-- I5 -->
<g id="node6" class="node">
<title>I5</title>
<path fill="lightcoral" stroke="black" d="M386.5,-50C386.5,-50 338.5,-50 338.5,-50 332.5,-50 326.5,-44 326.5,-38 326.5,-38 326.5,-12 326.5,-12 326.5,-6 332.5,0 338.5,0 338.5,0 386.5,0 386.5,0 392.5,0 398.5,-6 398.5,-12 398.5,-12 398.5,-38 398.5,-38 398.5,-44 392.5,-50 386.5,-50"/>
<polygon fill="darkblue" stroke="transparent" points="334.5,-25 334.5,-46 390.5,-46 390.5,-25 334.5,-25"/>
<polygon fill="none" stroke="black" points="334.5,-25 334.5,-46 390.5,-46 390.5,-25 334.5,-25"/>
<text text-anchor="start" x="356" y="-32.8" font-family="Times New Roman,serif" font-weight="bold" font-size="14.00" fill="white">I5</text>
<polygon fill="none" stroke="black" points="334.5,-4 334.5,-25 390.5,-25 390.5,-4 334.5,-4"/>
<text text-anchor="start" x="337.5" y="-10.8" font-family="Times New Roman,serif" font-size="14.00">F → id •</text>
</g>
<!-- I0&#45;&gt;I5 -->
<g id="edge5" class="edge">
<title>I0&#45;&gt;I5</title>
<path fill="none" stroke="red" d="M178.71,-1022.22C277.2,-1017.84 495.5,-992.56 495.5,-854.5 495.5,-854.5 495.5,-854.5 495.5,-142 495.5,-94.55 446.82,-62.06 408.36,-43.79"/>
<polygon fill="red" stroke="red" points="409.39,-40.41 398.84,-39.45 406.49,-46.78 409.39,-40.41"/>
<text text-anchor="middle" x="499.5" y="-499.5" font-family="Times New Roman,serif" font-size="10.00">id</text>
</g>
<!-- I6 -->
<g id="node7" class="node">
<title>I6</title>
<path fill="lightblue" stroke="black" d="M312.5,-771C312.5,-771 242.5,-771 242.5,-771 236.5,-771 230.5,-765 230.5,-759 230.5,-759 230.5,-649 230.5,-649 230.5,-643 236.5,-637 242.5,-637 242.5,-637 312.5,-637 312.5,-637 318.5,-637 324.5,-643 324.5,-649 324.5,-649 324.5,-759 324.5,-759 324.5,-765 318.5,-771 312.5,-771"/>
<polygon fill="darkblue" stroke="transparent" points="238.5,-746 238.5,-767 316.5,-767 316.5,-746 238.5,-746"/>
<polygon fill="none" stroke="black" points="238.5,-746 238.5,-767 316.5,-767 316.5,-746 238.5,-746"/>
<text text-anchor="start" x="271" y="-753.8" font-family="Times New Roman,serif" font-weight="bold" font-size="14.00" fill="white">I6</text>
<polygon fill="none" stroke="black" points="238.5,-725 238.5,-746 316.5,-746 316.5,-725 238.5,-725"/>
<text text-anchor="start" x="241.5" y="-731.8" font-family="Times New Roman,serif" font-size="14.00">E → E + • T</text>
<polygon fill="none" stroke="black" points="238.5,-704 238.5,-725 316.5,-725 316.5,-704 238.5,-704"/>
<text text-anchor="start" x="241.5" y="-710.8" font-family="Times New Roman,serif" font-size="14.00">T → • T * F</text>
<polygon fill="none" stroke="black" points="238.5,-683 238.5,-704 316.5,-704 316.5,-683 238.5,-683"/>
<text text-anchor="start" x="241.5" y="-689.8" font-family="Times New Roman,serif" font-size="14.00">T → • F</text>
<polygon fill="none" stroke="black" points="238.5,-662 238.5,-683 316.5,-683 316.5,-662 238.5,-662"/>
<text text-anchor="start" x="241.5" y="-668.8" font-family="Times New Roman,serif" font-size="14.00">F → • ( E )</text>
<polygon fill="none" stroke="black" points="238.5,-641 238.5,-662 316.5,-662 316.5,-641 238.5,-641"/>
<text text-anchor="start" x="241.5" y="-647.8" font-family="Times New Roman,serif" font-size="14.00">F → • id</text>
</g>
<!-- I1&#45;&gt;I6 -->
<g id="edge6" class="edge">
<title>I1&#45;&gt;I6</title>
<path fill="none" stroke="red" d="M236.93,-817.92C240.96,-806.68 245.62,-793.73 250.3,-780.71"/>
<polygon fill="red" stroke="red" points="253.61,-781.82 253.7,-771.23 247.03,-779.46 253.61,-781.82"/>
<text text-anchor="middle" x="248.5" y="-792" font-family="Times New Roman,serif" font-size="10.00">+</text>
</g>
<!-- I7 -->
<g id="node8" class="node">
<title>I7</title>
<path fill="lightblue" stroke="black" d="M210,-189C210,-189 141,-189 141,-189 135,-189 129,-183 129,-177 129,-177 129,-109 129,-109 129,-103 135,-97 141,-97 141,-97 210,-97 210,-97 216,-97 222,-103 222,-109 222,-109 222,-177 222,-177 222,-183 216,-189 210,-189"/>
<polygon fill="darkblue" stroke="transparent" points="137.5,-164 137.5,-185 214.5,-185 214.5,-164 137.5,-164"/>
<polygon fill="none" stroke="black" points="137.5,-164 137.5,-185 214.5,-185 214.5,-164 137.5,-164"/>
<text text-anchor="start" x="169.5" y="-171.8" font-family="Times New Roman,serif" font-weight="bold" font-size="14.00" fill="white">I7</text>
<polygon fill="none" stroke="black" points="137.5,-143 137.5,-164 214.5,-164 214.5,-143 137.5,-143"/>
<text text-anchor="start" x="140.5" y="-149.8" font-family="Times New Roman,serif" font-size="14.00">T → T * • F</text>
<polygon fill="none" stroke="black" points="137.5,-122 137.5,-143 214.5,-143 214.5,-122 137.5,-122"/>
<text text-anchor="start" x="140.5" y="-128.8" font-family="Times New Roman,serif" font-size="14.00">F → • ( E )</text>
<polygon fill="none" stroke="black" points="137.5,-101 137.5,-122 214.5,-122 214.5,-101 137.5,-101"/>
<text text-anchor="start" x="140.5" y="-107.8" font-family="Times New Roman,serif" font-size="14.00">F → • id</text>
</g>
<!-- I2&#45;&gt;I7 -->
<g id="edge7" class="edge">
<title>I2&#45;&gt;I7</title>
<path fill="none" stroke="red" d="M81.75,-235.93C94.09,-223.84 108.23,-209.96 121.74,-196.72"/>
<polygon fill="red" stroke="red" points="124.47,-198.95 129.16,-189.45 119.57,-193.95 124.47,-198.95"/>
<text text-anchor="middle" x="114.5" y="-210" font-family="Times New Roman,serif" font-size="10.00">*</text>
</g>
<!-- I4&#45;&gt;I2 -->
<g id="edge9" class="edge">
<title>I4&#45;&gt;I2</title>
<path fill="none" stroke="blue" stroke-width="2" d="M176.39,-438.65C170.06,-430.35 163.64,-421.96 157.5,-414 131.81,-380.7 102.42,-343.27 80.34,-315.27"/>
<polygon fill="blue" stroke="blue" stroke-width="2" points="82.97,-312.95 74.03,-307.27 77.47,-317.29 82.97,-312.95"/>
<text text-anchor="middle" x="147" y="-358" font-family="Times New Roman,serif" font-size="10.00">T</text>
</g>
<!-- I4&#45;&gt;I3 -->
<g id="edge10" class="edge">
<title>I4&#45;&gt;I3</title>
<path fill="none" stroke="blue" stroke-width="2" d="M208.22,-413.63C201.59,-384.74 192.52,-352.87 180.5,-325 177.6,-318.28 173.88,-311.46 169.96,-305.06"/>
<polygon fill="blue" stroke="blue" stroke-width="2" points="172.9,-303.17 164.55,-296.64 167.01,-306.95 172.9,-303.17"/>
<text text-anchor="middle" x="207.5" y="-358" font-family="Times New Roman,serif" font-size="10.00">F</text>
</g>
<!-- I4&#45;&gt;I4 -->
<g id="edge11" class="edge">
<title>I4&#45;&gt;I4</title>
<path fill="none" stroke="red" d="M270.54,-522.07C280.93,-520.18 288.5,-513.49 288.5,-502 288.5,-494.46 285.24,-488.98 280.06,-485.58"/>
<polygon fill="red" stroke="red" points="281.13,-482.24 270.54,-481.93 278.62,-488.78 281.13,-482.24"/>
<text text-anchor="middle" x="290.5" y="-499.5" font-family="Times New Roman,serif" font-size="10.00">(</text>
</g>
<!-- I4&#45;&gt;I5 -->
<g id="edge12" class="edge">
<title>I4&#45;&gt;I5</title>
<path fill="none" stroke="red" d="M232.35,-413.63C243.34,-329.39 266.81,-199.9 314.5,-97 320.69,-83.64 329.27,-70 337.47,-58.29"/>
<polygon fill="red" stroke="red" points="340.33,-60.3 343.33,-50.13 334.65,-56.21 340.33,-60.3"/>
<text text-anchor="middle" x="277.5" y="-210" font-family="Times New Roman,serif" font-size="10.00">id</text>
</g>
<!-- I8 -->
<g id="node9" class="node">
<title>I8</title>
<path fill="lightblue" stroke="black" d="M401.5,-307C401.5,-307 331.5,-307 331.5,-307 325.5,-307 319.5,-301 319.5,-295 319.5,-295 319.5,-248 319.5,-248 319.5,-242 325.5,-236 331.5,-236 331.5,-236 401.5,-236 401.5,-236 407.5,-236 413.5,-242 413.5,-248 413.5,-248 413.5,-295 413.5,-295 413.5,-301 407.5,-307 401.5,-307"/>
<polygon fill="darkblue" stroke="transparent" points="327.5,-281.5 327.5,-302.5 405.5,-302.5 405.5,-281.5 327.5,-281.5"/>
<polygon fill="none" stroke="black" points="327.5,-281.5 327.5,-302.5 405.5,-302.5 405.5,-281.5 327.5,-281.5"/>
<text text-anchor="start" x="360" y="-289.3" font-family="Times New Roman,serif" font-weight="bold" font-size="14.00" fill="white">I8</text>
<polygon fill="none" stroke="black" points="327.5,-260.5 327.5,-281.5 405.5,-281.5 405.5,-260.5 327.5,-260.5"/>
<text text-anchor="start" x="330.5" y="-267.3" font-family="Times New Roman,serif" font-size="14.00">F → ( E • )</text>
<polygon fill="none" stroke="black" points="327.5,-239.5 327.5,-260.5 405.5,-260.5 405.5,-239.5 327.5,-239.5"/>
<text text-anchor="start" x="330.5" y="-246.3" font-family="Times New Roman,serif" font-size="14.00">E → E • + T</text>
</g>
<!-- I4&#45;&gt;I8 -->
<g id="edge8" class="edge">
<title>I4&#45;&gt;I8</title>
<path fill="none" stroke="blue" stroke-width="2" d="M253.56,-413.76C268.58,-370.52 283.91,-327.02 285.5,-325 289.71,-319.65 299.42,-312.41 310.7,-305.01"/>
<polygon fill="blue" stroke="blue" stroke-width="2" points="312.59,-307.95 319.13,-299.62 308.82,-302.05 312.59,-307.95"/>
<text text-anchor="middle" x="288.5" y="-358" font-family="Times New Roman,serif" font-size="10.00">E</text>
</g>
<!-- I6&#45;&gt;I3 -->
<g id="edge14" class="edge">
<title>I6&#45;&gt;I3</title>
<path fill="none" stroke="blue" stroke-width="2" d="M230.28,-670.88C205.04,-650.85 176.21,-622.69 161.5,-590 118.67,-494.82 130.94,-366.97 140.27,-306.68"/>
<polygon fill="blue" stroke="blue" stroke-width="2" points="143.76,-307 141.91,-296.57 136.85,-305.88 143.76,-307"/>
<text text-anchor="middle" x="164.5" y="-499.5" font-family="Times New Roman,serif" font-size="10.00">F</text>
</g>
<!-- I6&#45;&gt;I4 -->
<g id="edge15" class="edge">
<title>I6&#45;&gt;I4</title>
<path fill="none" stroke="red" d="M259.67,-636.96C256.47,-625.11 253.07,-612.53 249.7,-600.02"/>
<polygon fill="red" stroke="red" points="252.98,-598.76 246.99,-590.02 246.22,-600.59 252.98,-598.76"/>
<text text-anchor="middle" x="255.5" y="-611" font-family="Times New Roman,serif" font-size="10.00">(</text>
</g>
<!-- I6&#45;&gt;I5 -->
<g id="edge16" class="edge">
<title>I6&#45;&gt;I5</title>
<path fill="none" stroke="red" d="M324.96,-675.32C375.87,-641.66 449.5,-579.71 449.5,-503 449.5,-503 449.5,-503 449.5,-142 449.5,-108.3 425.71,-78.13 403.01,-57"/>
<polygon fill="red" stroke="red" points="405.18,-54.25 395.39,-50.2 400.52,-59.47 405.18,-54.25"/>
<text text-anchor="middle" x="453.5" y="-269" font-family="Times New Roman,serif" font-size="10.00">id</text>
</g>
<!-- I9 -->
<g id="node10" class="node">
<title>I9</title>
<path fill="orange" stroke="black" d="M374.5,-396C374.5,-396 304.5,-396 304.5,-396 298.5,-396 292.5,-390 292.5,-384 292.5,-384 292.5,-337 292.5,-337 292.5,-331 298.5,-325 304.5,-325 304.5,-325 374.5,-325 374.5,-325 380.5,-325 386.5,-331 386.5,-337 386.5,-337 386.5,-384 386.5,-384 386.5,-390 380.5,-396 374.5,-396"/>
<polygon fill="darkblue" stroke="transparent" points="300.5,-370.5 300.5,-391.5 378.5,-391.5 378.5,-370.5 300.5,-370.5"/>
<polygon fill="none" stroke="black" points="300.5,-370.5 300.5,-391.5 378.5,-391.5 378.5,-370.5 300.5,-370.5"/>
<text text-anchor="start" x="333" y="-378.3" font-family="Times New Roman,serif" font-weight="bold" font-size="14.00" fill="white">I9</text>
<polygon fill="none" stroke="black" points="300.5,-349.5 300.5,-370.5 378.5,-370.5 378.5,-349.5 300.5,-349.5"/>
<text text-anchor="start" x="303.5" y="-356.3" font-family="Times New Roman,serif" font-size="14.00">E → E + T •</text>
<polygon fill="none" stroke="black" points="300.5,-328.5 300.5,-349.5 378.5,-349.5 378.5,-328.5 300.5,-328.5"/>
<text text-anchor="start" x="303.5" y="-335.3" font-family="Times New Roman,serif" font-size="14.00">T → T • * F</text>
</g>
<!-- I6&#45;&gt;I9 -->
<g id="edge13" class="edge">
<title>I6&#45;&gt;I9</title>
<path fill="none" stroke="blue" stroke-width="2" d="M292.08,-636.77C295.31,-621.44 298.63,-605.17 301.5,-590 313.56,-526.26 325.51,-452.13 332.7,-406.01"/>
<polygon fill="blue" stroke="blue" stroke-width="2" points="336.17,-406.46 334.25,-396.04 329.25,-405.38 336.17,-406.46"/>
<text text-anchor="middle" x="301" y="-611" font-family="Times New Roman,serif" font-size="10.00">T</text>
</g>
<!-- I7&#45;&gt;I4 -->
<g id="edge18" class="edge">
<title>I7&#45;&gt;I4</title>
<path fill="none" stroke="red" d="M185.36,-189.16C193,-225.65 203.29,-278.41 209.5,-325 212.9,-350.48 215.57,-378.16 217.63,-403.85"/>
<polygon fill="red" stroke="red" points="214.15,-404.27 218.42,-413.97 221.13,-403.73 214.15,-404.27"/>
<text text-anchor="middle" x="209.5" y="-269" font-family="Times New Roman,serif" font-size="10.00">(</text>
</g>
<!-- I7&#45;&gt;I5 -->
<g id="edge19" class="edge">
<title>I7&#45;&gt;I5</title>
<path fill="none" stroke="red" d="M200.84,-96.83C208.57,-86.17 217.87,-75.69 228.5,-68 254.33,-49.3 288.74,-38.75 316.23,-32.9"/>
<polygon fill="red" stroke="red" points="317.26,-36.26 326.39,-30.88 315.9,-29.39 317.26,-36.26"/>
<text text-anchor="middle" x="232.5" y="-71" font-family="Times New Roman,serif" font-size="10.00">id</text>
</g>
<!-- I10 -->
<g id="node11" class="node">
<title>I10</title>
<path fill="lightcoral" stroke="black" d="M210,-50C210,-50 141,-50 141,-50 135,-50 129,-44 129,-38 129,-38 129,-12 129,-12 129,-6 135,0 141,0 141,0 210,0 210,0 216,0 222,-6 222,-12 222,-12 222,-38 222,-38 222,-44 216,-50 210,-50"/>
<polygon fill="darkblue" stroke="transparent" points="137.5,-25 137.5,-46 214.5,-46 214.5,-25 137.5,-25"/>
<polygon fill="none" stroke="black" points="137.5,-25 137.5,-46 214.5,-46 214.5,-25 137.5,-25"/>
<text text-anchor="start" x="165.5" y="-32.8" font-family="Times New Roman,serif" font-weight="bold" font-size="14.00" fill="white">I10</text>
<polygon fill="none" stroke="black" points="137.5,-4 137.5,-25 214.5,-25 214.5,-4 137.5,-4"/>
<text text-anchor="start" x="140.5" y="-10.8" font-family="Times New Roman,serif" font-size="14.00">T → T * F •</text>
</g>
<!-- I7&#45;&gt;I10 -->
<g id="edge17" class="edge">
<title>I7&#45;&gt;I10</title>
<path fill="none" stroke="blue" stroke-width="2" d="M175.5,-96.82C175.5,-84.64 175.5,-71.67 175.5,-60.2"/>
<polygon fill="blue" stroke="blue" stroke-width="2" points="179,-60.16 175.5,-50.16 172,-60.16 179,-60.16"/>
<text text-anchor="middle" x="178.5" y="-71" font-family="Times New Roman,serif" font-size="10.00">F</text>
</g>
<!-- I8&#45;&gt;I6 -->
<g id="edge20" class="edge">
<title>I8&#45;&gt;I6</title>
<path fill="none" stroke="red" d="M382.52,-307.24C384.58,-313.06 386.37,-319.12 387.5,-325 393.47,-355.99 392.07,-364.78 387.5,-396 375.5,-478.06 341.22,-566.72 314.08,-627.57"/>
<polygon fill="red" stroke="red" points="310.88,-626.16 309.96,-636.71 317.26,-629.03 310.88,-626.16"/>
<text text-anchor="middle" x="386.5" y="-499.5" font-family="Times New Roman,serif" font-size="10.00">+</text>
</g>
<!-- I11 -->
<g id="node12" class="node">
<title>I11</title>
<path fill="lightcoral" stroke="black" d="M397.5,-168C397.5,-168 335.5,-168 335.5,-168 329.5,-168 323.5,-162 323.5,-156 323.5,-156 323.5,-130 323.5,-130 323.5,-124 329.5,-118 335.5,-118 335.5,-118 397.5,-118 397.5,-118 403.5,-118 409.5,-124 409.5,-130 409.5,-130 409.5,-156 409.5,-156 409.5,-162 403.5,-168 397.5,-168"/>
<polygon fill="darkblue" stroke="transparent" points="331.5,-143 331.5,-164 401.5,-164 401.5,-143 331.5,-143"/>
<polygon fill="none" stroke="black" points="331.5,-143 331.5,-164 401.5,-164 401.5,-143 331.5,-143"/>
<text text-anchor="start" x="356" y="-150.8" font-family="Times New Roman,serif" font-weight="bold" font-size="14.00" fill="white">I11</text>
<polygon fill="none" stroke="black" points="331.5,-122 331.5,-143 401.5,-143 401.5,-122 331.5,-122"/>
<text text-anchor="start" x="334.5" y="-128.8" font-family="Times New Roman,serif" font-size="14.00">F → ( E ) •</text>
</g>
<!-- I8&#45;&gt;I11 -->
<g id="edge21" class="edge">
<title>I8&#45;&gt;I11</title>
<path fill="none" stroke="red" d="M366.5,-235.93C366.5,-217.95 366.5,-196.05 366.5,-178.14"/>
<polygon fill="red" stroke="red" points="370,-178.11 366.5,-168.11 363,-178.11 370,-178.11"/>
<text text-anchor="middle" x="368.5" y="-210" font-family="Times New Roman,serif" font-size="10.00">)</text>
</g>
<!-- I9&#45;&gt;I7 -->
<g id="edge22" class="edge">
<title>I9&#45;&gt;I7</title>
<path fill="none" stroke="red" d="M315.02,-324.77C311.3,-318.95 307.66,-312.89 304.5,-307 281.69,-264.53 292.47,-244.76 262.5,-207 253.64,-195.83 242.31,-185.72 230.78,-177.02"/>
<polygon fill="red" stroke="red" points="232.54,-173.97 222.38,-170.95 228.43,-179.64 232.54,-173.97"/>
<text text-anchor="middle" x="307.5" y="-269" font-family="Times New Roman,serif" font-size="10.00">*</text>
</g>
<!-- start -->
<g id="node13" class="node">
<title>start</title>
</g>
<!-- start&#45;&gt;I0 -->
<g id="edge23" class="edge">
<title>start&#45;&gt;I0</title>
<path fill="none" stroke="green" stroke-width="2" d="M131.5,-1148.99C131.5,-1141.69 131.5,-1132.52 131.5,-1122.5"/>
<polygon fill="green" stroke="green" stroke-width="2" points="135,-1122.22 131.5,-1112.22 128,-1122.22 135,-1122.22"/>
</g>
</g>
</svg>
