<?xml version="1.0" encoding="UTF-8" standalone="no"?>
<!DOCTYPE svg PUBLIC "-//W3C//DTD SVG 1.1//EN"
 "http://www.w3.org/Graphics/SVG/1.1/DTD/svg11.dtd">
<!-- Generated by graphviz version 2.46.0 (20210118.1747)
 -->
<!-- Pages: 1 -->
<svg width="609pt" height="1193pt"
 viewBox="0.00 0.00 609.00 1193.00" xmlns="http://www.w3.org/2000/svg" xmlns:xlink="http://www.w3.org/1999/xlink">
<g id="graph0" class="graph" transform="scale(1 1) rotate(0) translate(4 1189)">
<polygon fill="white" stroke="transparent" points="-4,4 -4,-1189 605,-1189 605,4 -4,4"/>
<!-- I0 -->
<g id="node1" class="node">
<title>I0</title>
<path fill="lightblue" stroke="black" d="M487,-1112C487,-1112 417,-1112 417,-1112 411,-1112 405,-1106 405,-1100 405,-1100 405,-948 405,-948 405,-942 411,-936 417,-936 417,-936 487,-936 487,-936 493,-936 499,-942 499,-948 499,-948 499,-1100 499,-1100 499,-1106 493,-1112 487,-1112"/>
<polygon fill="darkblue" stroke="transparent" points="413,-1087 413,-1108 491,-1108 491,-1087 413,-1087"/>
<polygon fill="none" stroke="black" points="413,-1087 413,-1108 491,-1108 491,-1087 413,-1087"/>
<text text-anchor="start" x="445.5" y="-1094.8" font-family="Times New Roman,serif" font-weight="bold" font-size="14.00" fill="white">I0</text>
<polygon fill="none" stroke="black" points="413,-1066 413,-1087 491,-1087 491,-1066 413,-1066"/>
<text text-anchor="start" x="416" y="-1072.8" font-family="Times New Roman,serif" font-size="14.00">E → • E + T</text>
<polygon fill="none" stroke="black" points="413,-1045 413,-1066 491,-1066 491,-1045 413,-1045"/>
<text text-anchor="start" x="416" y="-1051.8" font-family="Times New Roman,serif" font-size="14.00">E → • T</text>
<polygon fill="none" stroke="black" points="413,-1024 413,-1045 491,-1045 491,-1024 413,-1024"/>
<text text-anchor="start" x="416" y="-1030.8" font-family="Times New Roman,serif" font-size="14.00">E&#39; → • E</text>
<polygon fill="none" stroke="black" points="413,-1003 413,-1024 491,-1024 491,-1003 413,-1003"/>
<text text-anchor="start" x="416" y="-1009.8" font-family="Times New Roman,serif" font-size="14.00">F → • ( E )</text>
<polygon fill="none" stroke="black" points="413,-982 413,-1003 491,-1003 491,-982 413,-982"/>
<text text-anchor="start" x="416" y="-988.8" font-family="Times New Roman,serif" font-size="14.00">F → • id</text>
<polygon fill="none" stroke="black" points="413,-961 413,-982 491,-982 491,-961 413,-961"/>
<text text-anchor="start" x="416" y="-967.8" font-family="Times New Roman,serif" font-size="14.00">T → • F</text>
<polygon fill="none" stroke="black" points="413,-940 413,-961 491,-961 491,-940 413,-940"/>
<text text-anchor="start" x="416" y="-946.8" font-family="Times New Roman,serif" font-size="14.00">T → • T * F</text>
</g>
<!-- I1 -->
<g id="node2" class="node">
<title>I1</title>
<path fill="lightblue" stroke="black" d="M390,-889C390,-889 320,-889 320,-889 314,-889 308,-883 308,-877 308,-877 308,-725 308,-725 308,-719 314,-713 320,-713 320,-713 390,-713 390,-713 396,-713 402,-719 402,-725 402,-725 402,-877 402,-877 402,-883 396,-889 390,-889"/>
<polygon fill="darkblue" stroke="transparent" points="316,-864 316,-885 394,-885 394,-864 316,-864"/>
<polygon fill="none" stroke="black" points="316,-864 316,-885 394,-885 394,-864 316,-864"/>
<text text-anchor="start" x="348.5" y="-871.8" font-family="Times New Roman,serif" font-weight="bold" font-size="14.00" fill="white">I1</text>
<polygon fill="none" stroke="black" points="316,-843 316,-864 394,-864 394,-843 316,-843"/>
<text text-anchor="start" x="319" y="-849.8" font-family="Times New Roman,serif" font-size="14.00">E → • E + T</text>
<polygon fill="none" stroke="black" points="316,-822 316,-843 394,-843 394,-822 316,-822"/>
<text text-anchor="start" x="319" y="-828.8" font-family="Times New Roman,serif" font-size="14.00">E → • T</text>
<polygon fill="none" stroke="black" points="316,-801 316,-822 394,-822 394,-801 316,-801"/>
<text text-anchor="start" x="319" y="-807.8" font-family="Times New Roman,serif" font-size="14.00">F → • ( E )</text>
<polygon fill="none" stroke="black" points="316,-780 316,-801 394,-801 394,-780 316,-780"/>
<text text-anchor="start" x="319" y="-786.8" font-family="Times New Roman,serif" font-size="14.00">F → • id</text>
<polygon fill="none" stroke="black" points="316,-759 316,-780 394,-780 394,-759 316,-759"/>
<text text-anchor="start" x="319" y="-765.8" font-family="Times New Roman,serif" font-size="14.00">F → ( • E )</text>
<polygon fill="none" stroke="black" points="316,-738 316,-759 394,-759 394,-738 316,-738"/>
<text text-anchor="start" x="319" y="-744.8" font-family="Times New Roman,serif" font-size="14.00">T → • F</text>
<polygon fill="none" stroke="black" points="316,-717 316,-738 394,-738 394,-717 316,-717"/>
<text text-anchor="start" x="319" y="-723.8" font-family="Times New Roman,serif" font-size="14.00">T → • T * F</text>
</g>
<!-- I0&#45;&gt;I1 -->
<g id="edge1" class="edge">
<title>I0&#45;&gt;I1</title>
<path fill="none" stroke="red" d="M413.8,-935.97C408.44,-923.75 402.9,-911.12 397.46,-898.73"/>
<polygon fill="red" stroke="red" points="400.55,-897.06 393.32,-889.31 394.14,-899.87 400.55,-897.06"/>
<text text-anchor="middle" x="406" y="-910" font-family="Times New Roman,serif" font-size="10.00">(</text>
</g>
<!-- I2 -->
<g id="node3" class="node">
<title>I2</title>
<path fill="lightcoral" stroke="black" d="M369,-296.5C369,-296.5 323,-296.5 323,-296.5 317,-296.5 311,-290.5 311,-284.5 311,-284.5 311,-258.5 311,-258.5 311,-252.5 317,-246.5 323,-246.5 323,-246.5 369,-246.5 369,-246.5 375,-246.5 381,-252.5 381,-258.5 381,-258.5 381,-284.5 381,-284.5 381,-290.5 375,-296.5 369,-296.5"/>
<polygon fill="darkblue" stroke="transparent" points="319,-271.5 319,-292.5 373,-292.5 373,-271.5 319,-271.5"/>
<polygon fill="none" stroke="black" points="319,-271.5 319,-292.5 373,-292.5 373,-271.5 319,-271.5"/>
<text text-anchor="start" x="339.5" y="-279.3" font-family="Times New Roman,serif" font-weight="bold" font-size="14.00" fill="white">I2</text>
<polygon fill="none" stroke="black" points="319,-250.5 319,-271.5 373,-271.5 373,-250.5 319,-250.5"/>
<text text-anchor="start" x="322" y="-257.3" font-family="Times New Roman,serif" font-size="14.00">T → F •</text>
</g>
<!-- I0&#45;&gt;I2 -->
<g id="edge2" class="edge">
<title>I0&#45;&gt;I2</title>
<path fill="none" stroke="blue" stroke-width="2" d="M459.45,-935.85C467.44,-805.02 470.4,-552.06 397,-354 390.66,-336.89 380.43,-319.53 370.8,-305.26"/>
<polygon fill="blue" stroke="blue" stroke-width="2" points="373.5,-303.01 364.92,-296.8 367.75,-307.01 373.5,-303.01"/>
<text text-anchor="middle" x="456" y="-568" font-family="Times New Roman,serif" font-size="10.00">F</text>
</g>
<!-- I3 -->
<g id="node4" class="node">
<title>I3</title>
<path fill="orange" stroke="black" d="M552.5,-606C552.5,-606 483.5,-606 483.5,-606 477.5,-606 471.5,-600 471.5,-594 471.5,-594 471.5,-547 471.5,-547 471.5,-541 477.5,-535 483.5,-535 483.5,-535 552.5,-535 552.5,-535 558.5,-535 564.5,-541 564.5,-547 564.5,-547 564.5,-594 564.5,-594 564.5,-600 558.5,-606 552.5,-606"/>
<polygon fill="darkblue" stroke="transparent" points="480,-580.5 480,-601.5 557,-601.5 557,-580.5 480,-580.5"/>
<polygon fill="none" stroke="black" points="480,-580.5 480,-601.5 557,-601.5 557,-580.5 480,-580.5"/>
<text text-anchor="start" x="512" y="-588.3" font-family="Times New Roman,serif" font-weight="bold" font-size="14.00" fill="white">I3</text>
<polygon fill="none" stroke="black" points="480,-559.5 480,-580.5 557,-580.5 557,-559.5 480,-559.5"/>
<text text-anchor="start" x="483" y="-566.3" font-family="Times New Roman,serif" font-size="14.00">E → T •</text>
<polygon fill="none" stroke="black" points="480,-538.5 480,-559.5 557,-559.5 557,-538.5 480,-538.5"/>
<text text-anchor="start" x="483" y="-545.3" font-family="Times New Roman,serif" font-size="14.00">T → T • * F</text>
</g>
<!-- I0&#45;&gt;I3 -->
<g id="edge3" class="edge">
<title>I0&#45;&gt;I3</title>
<path fill="none" stroke="blue" stroke-width="2" d="M464.73,-935.95C478.71,-840.25 500.64,-690.27 511.48,-616.1"/>
<polygon fill="blue" stroke="blue" stroke-width="2" points="514.95,-616.56 512.93,-606.16 508.02,-615.54 514.95,-616.56"/>
<text text-anchor="middle" x="500.5" y="-798.5" font-family="Times New Roman,serif" font-size="10.00">T</text>
</g>
<!-- I4 -->
<g id="node5" class="node">
<title>I4</title>
<path fill="lightgreen" stroke="black" d="M82,-695C82,-695 12,-695 12,-695 6,-695 0,-689 0,-683 0,-683 0,-636 0,-636 0,-630 6,-624 12,-624 12,-624 82,-624 82,-624 88,-624 94,-630 94,-636 94,-636 94,-683 94,-683 94,-689 88,-695 82,-695"/>
<polygon fill="darkblue" stroke="transparent" points="8,-669.5 8,-690.5 86,-690.5 86,-669.5 8,-669.5"/>
<polygon fill="none" stroke="black" points="8,-669.5 8,-690.5 86,-690.5 86,-669.5 8,-669.5"/>
<text text-anchor="start" x="40.5" y="-677.3" font-family="Times New Roman,serif" font-weight="bold" font-size="14.00" fill="white">I4</text>
<polygon fill="none" stroke="black" points="8,-648.5 8,-669.5 86,-669.5 86,-648.5 8,-648.5"/>
<text text-anchor="start" x="11" y="-655.3" font-family="Times New Roman,serif" font-size="14.00">E → E • + T</text>
<polygon fill="none" stroke="black" points="8,-627.5 8,-648.5 86,-648.5 86,-627.5 8,-627.5"/>
<text text-anchor="start" x="11" y="-634.3" font-family="Times New Roman,serif" font-size="14.00">E&#39; → E •</text>
</g>
<!-- I0&#45;&gt;I4 -->
<g id="edge4" class="edge">
<title>I0&#45;&gt;I4</title>
<path fill="none" stroke="blue" stroke-width="2" d="M404.94,-982.16C374.59,-955.72 334.32,-920.48 299,-889 226.24,-824.16 142.57,-747.96 92.29,-701.99"/>
<polygon fill="blue" stroke="blue" stroke-width="2" points="94.55,-699.32 84.81,-695.16 89.83,-704.49 94.55,-699.32"/>
<text text-anchor="middle" x="332" y="-910" font-family="Times New Roman,serif" font-size="10.00">E</text>
</g>
<!-- I5 -->
<g id="node6" class="node">
<title>I5</title>
<path fill="lightcoral" stroke="black" d="M263,-50C263,-50 215,-50 215,-50 209,-50 203,-44 203,-38 203,-38 203,-12 203,-12 203,-6 209,0 215,0 215,0 263,0 263,0 269,0 275,-6 275,-12 275,-12 275,-38 275,-38 275,-44 269,-50 263,-50"/>
<polygon fill="darkblue" stroke="transparent" points="211,-25 211,-46 267,-46 267,-25 211,-25"/>
<polygon fill="none" stroke="black" points="211,-25 211,-46 267,-46 267,-25 211,-25"/>
<text text-anchor="start" x="232.5" y="-32.8" font-family="Times New Roman,serif" font-weight="bold" font-size="14.00" fill="white">I5</text>
<polygon fill="none" stroke="black" points="211,-4 211,-25 267,-25 267,-4 211,-4"/>
<text text-anchor="start" x="214" y="-10.8" font-family="Times New Roman,serif" font-size="14.00">F → id •</text>
</g>
<!-- I0&#45;&gt;I5 -->
<g id="edge5" class="edge">
<title>I0&#45;&gt;I5</title>
<path fill="none" stroke="red" d="M499.34,-981.07C540.31,-939.96 593,-873.23 593,-802 593,-802 593,-802 593,-142 593,-13.12 441.84,-85.69 318,-50 307.24,-46.9 295.7,-43.46 284.85,-40.17"/>
<polygon fill="red" stroke="red" points="285.7,-36.77 275.12,-37.21 283.67,-43.47 285.7,-36.77"/>
<text text-anchor="middle" x="597" y="-418.5" font-family="Times New Roman,serif" font-size="10.00">id</text>
</g>
<!-- I1&#45;&gt;I1 -->
<g id="edge6" class="edge">
<title>I1&#45;&gt;I1</title>
<path fill="none" stroke="red" d="M402.04,-821.07C412.43,-819.18 420,-812.49 420,-801 420,-793.46 416.74,-787.98 411.56,-784.58"/>
<polygon fill="red" stroke="red" points="412.63,-781.24 402.04,-780.93 410.12,-787.78 412.63,-781.24"/>
<text text-anchor="middle" x="422" y="-798.5" font-family="Times New Roman,serif" font-size="10.00">(</text>
</g>
<!-- I1&#45;&gt;I2 -->
<g id="edge7" class="edge">
<title>I1&#45;&gt;I2</title>
<path fill="none" stroke="blue" stroke-width="2" d="M353.51,-712.89C351.49,-594.43 347.97,-387.98 346.58,-306.74"/>
<polygon fill="blue" stroke="blue" stroke-width="2" points="350.08,-306.51 346.41,-296.57 343.08,-306.63 350.08,-306.51"/>
<text text-anchor="middle" x="354" y="-509" font-family="Times New Roman,serif" font-size="10.00">F</text>
</g>
<!-- I1&#45;&gt;I3 -->
<g id="edge8" class="edge">
<title>I1&#45;&gt;I3</title>
<path fill="none" stroke="blue" stroke-width="2" d="M402.15,-733.91C429.62,-695.39 463.48,-647.93 487.48,-614.29"/>
<polygon fill="blue" stroke="blue" stroke-width="2" points="490.4,-616.22 493.36,-606.05 484.7,-612.16 490.4,-616.22"/>
<text text-anchor="middle" x="482.5" y="-657" font-family="Times New Roman,serif" font-size="10.00">T</text>
</g>
<!-- I1&#45;&gt;I5 -->
<g id="edge10" class="edge">
<title>I1&#45;&gt;I5</title>
<path fill="none" stroke="red" d="M307.86,-768.87C236.43,-719.97 109,-625.2 109,-571.5 109,-571.5 109,-571.5 109,-142 109,-95.43 156.02,-62.92 193.5,-44.4"/>
<polygon fill="red" stroke="red" points="195.25,-47.44 202.79,-40 192.25,-41.12 195.25,-47.44"/>
<text text-anchor="middle" x="113" y="-328" font-family="Times New Roman,serif" font-size="10.00">id</text>
</g>
<!-- I6 -->
<g id="node7" class="node">
<title>I6</title>
<path fill="lightblue" stroke="black" d="M282,-606C282,-606 212,-606 212,-606 206,-606 200,-600 200,-594 200,-594 200,-547 200,-547 200,-541 206,-535 212,-535 212,-535 282,-535 282,-535 288,-535 294,-541 294,-547 294,-547 294,-594 294,-594 294,-600 288,-606 282,-606"/>
<polygon fill="darkblue" stroke="transparent" points="208,-580.5 208,-601.5 286,-601.5 286,-580.5 208,-580.5"/>
<polygon fill="none" stroke="black" points="208,-580.5 208,-601.5 286,-601.5 286,-580.5 208,-580.5"/>
<text text-anchor="start" x="240.5" y="-588.3" font-family="Times New Roman,serif" font-weight="bold" font-size="14.00" fill="white">I6</text>
<polygon fill="none" stroke="black" points="208,-559.5 208,-580.5 286,-580.5 286,-559.5 208,-559.5"/>
<text text-anchor="start" x="211" y="-566.3" font-family="Times New Roman,serif" font-size="14.00">E → E • + T</text>
<polygon fill="none" stroke="black" points="208,-538.5 208,-559.5 286,-559.5 286,-538.5 208,-538.5"/>
<text text-anchor="start" x="211" y="-545.3" font-family="Times New Roman,serif" font-size="14.00">F → ( E • )</text>
</g>
<!-- I1&#45;&gt;I6 -->
<g id="edge9" class="edge">
<title>I1&#45;&gt;I6</title>
<path fill="none" stroke="blue" stroke-width="2" d="M313.86,-712.96C298.13,-679.68 280.85,-643.13 267.8,-615.52"/>
<polygon fill="blue" stroke="blue" stroke-width="2" points="270.81,-613.69 263.37,-606.14 264.48,-616.68 270.81,-613.69"/>
<text text-anchor="middle" x="308" y="-657" font-family="Times New Roman,serif" font-size="10.00">E</text>
</g>
<!-- I7 -->
<g id="node8" class="node">
<title>I7</title>
<path fill="lightblue" stroke="black" d="M408.5,-189C408.5,-189 339.5,-189 339.5,-189 333.5,-189 327.5,-183 327.5,-177 327.5,-177 327.5,-109 327.5,-109 327.5,-103 333.5,-97 339.5,-97 339.5,-97 408.5,-97 408.5,-97 414.5,-97 420.5,-103 420.5,-109 420.5,-109 420.5,-177 420.5,-177 420.5,-183 414.5,-189 408.5,-189"/>
<polygon fill="darkblue" stroke="transparent" points="336,-164 336,-185 413,-185 413,-164 336,-164"/>
<polygon fill="none" stroke="black" points="336,-164 336,-185 413,-185 413,-164 336,-164"/>
<text text-anchor="start" x="368" y="-171.8" font-family="Times New Roman,serif" font-weight="bold" font-size="14.00" fill="white">I7</text>
<polygon fill="none" stroke="black" points="336,-143 336,-164 413,-164 413,-143 336,-143"/>
<text text-anchor="start" x="339" y="-149.8" font-family="Times New Roman,serif" font-size="14.00">F → • ( E )</text>
<polygon fill="none" stroke="black" points="336,-122 336,-143 413,-143 413,-122 336,-122"/>
<text text-anchor="start" x="339" y="-128.8" font-family="Times New Roman,serif" font-size="14.00">F → • id</text>
<polygon fill="none" stroke="black" points="336,-101 336,-122 413,-122 413,-101 336,-101"/>
<text text-anchor="start" x="339" y="-107.8" font-family="Times New Roman,serif" font-size="14.00">T → T * • F</text>
</g>
<!-- I3&#45;&gt;I7 -->
<g id="edge11" class="edge">
<title>I3&#45;&gt;I7</title>
<path fill="none" stroke="red" d="M514.27,-534.87C505.94,-468.06 481.76,-318.15 423,-207 421.36,-203.9 419.57,-200.81 417.67,-197.74"/>
<polygon fill="red" stroke="red" points="420.48,-195.64 412.08,-189.19 414.63,-199.47 420.48,-195.64"/>
<text text-anchor="middle" x="477" y="-328" font-family="Times New Roman,serif" font-size="10.00">*</text>
</g>
<!-- I8 -->
<g id="node9" class="node">
<title>I8</title>
<path fill="lightblue" stroke="black" d="M219,-488C219,-488 149,-488 149,-488 143,-488 137,-482 137,-476 137,-476 137,-366 137,-366 137,-360 143,-354 149,-354 149,-354 219,-354 219,-354 225,-354 231,-360 231,-366 231,-366 231,-476 231,-476 231,-482 225,-488 219,-488"/>
<polygon fill="darkblue" stroke="transparent" points="145,-463 145,-484 223,-484 223,-463 145,-463"/>
<polygon fill="none" stroke="black" points="145,-463 145,-484 223,-484 223,-463 145,-463"/>
<text text-anchor="start" x="177.5" y="-470.8" font-family="Times New Roman,serif" font-weight="bold" font-size="14.00" fill="white">I8</text>
<polygon fill="none" stroke="black" points="145,-442 145,-463 223,-463 223,-442 145,-442"/>
<text text-anchor="start" x="148" y="-448.8" font-family="Times New Roman,serif" font-size="14.00">E → E + • T</text>
<polygon fill="none" stroke="black" points="145,-421 145,-442 223,-442 223,-421 145,-421"/>
<text text-anchor="start" x="148" y="-427.8" font-family="Times New Roman,serif" font-size="14.00">F → • ( E )</text>
<polygon fill="none" stroke="black" points="145,-400 145,-421 223,-421 223,-400 145,-400"/>
<text text-anchor="start" x="148" y="-406.8" font-family="Times New Roman,serif" font-size="14.00">F → • id</text>
<polygon fill="none" stroke="black" points="145,-379 145,-400 223,-400 223,-379 145,-379"/>
<text text-anchor="start" x="148" y="-385.8" font-family="Times New Roman,serif" font-size="14.00">T → • F</text>
<polygon fill="none" stroke="black" points="145,-358 145,-379 223,-379 223,-358 145,-358"/>
<text text-anchor="start" x="148" y="-364.8" font-family="Times New Roman,serif" font-size="14.00">T → • T * F</text>
</g>
<!-- I4&#45;&gt;I8 -->
<g id="edge12" class="edge">
<title>I4&#45;&gt;I8</title>
<path fill="none" stroke="red" d="M67.07,-623.86C86.33,-590.61 116.05,-539.3 140.7,-496.74"/>
<polygon fill="red" stroke="red" points="143.74,-498.48 145.72,-488.08 137.68,-494.98 143.74,-498.48"/>
<text text-anchor="middle" x="122" y="-568" font-family="Times New Roman,serif" font-size="10.00">+</text>
</g>
<!-- I6&#45;&gt;I8 -->
<g id="edge14" class="edge">
<title>I6&#45;&gt;I8</title>
<path fill="none" stroke="red" d="M232.23,-534.92C227.43,-523.68 221.9,-510.73 216.34,-497.71"/>
<polygon fill="red" stroke="red" points="219.43,-496.05 212.29,-488.23 213,-498.8 219.43,-496.05"/>
<text text-anchor="middle" x="226" y="-509" font-family="Times New Roman,serif" font-size="10.00">+</text>
</g>
<!-- I9 -->
<g id="node10" class="node">
<title>I9</title>
<path fill="lightcoral" stroke="black" d="M323,-446C323,-446 261,-446 261,-446 255,-446 249,-440 249,-434 249,-434 249,-408 249,-408 249,-402 255,-396 261,-396 261,-396 323,-396 323,-396 329,-396 335,-402 335,-408 335,-408 335,-434 335,-434 335,-440 329,-446 323,-446"/>
<polygon fill="darkblue" stroke="transparent" points="257,-421 257,-442 327,-442 327,-421 257,-421"/>
<polygon fill="none" stroke="black" points="257,-421 257,-442 327,-442 327,-421 257,-421"/>
<text text-anchor="start" x="285.5" y="-428.8" font-family="Times New Roman,serif" font-weight="bold" font-size="14.00" fill="white">I9</text>
<polygon fill="none" stroke="black" points="257,-400 257,-421 327,-421 327,-400 257,-400"/>
<text text-anchor="start" x="260" y="-406.8" font-family="Times New Roman,serif" font-size="14.00">F → ( E ) •</text>
</g>
<!-- I6&#45;&gt;I9 -->
<g id="edge13" class="edge">
<title>I6&#45;&gt;I9</title>
<path fill="none" stroke="red" d="M257.55,-534.92C264.82,-511.08 274.45,-479.54 281.67,-455.86"/>
<polygon fill="red" stroke="red" points="285.04,-456.82 284.61,-446.23 278.34,-454.78 285.04,-456.82"/>
<text text-anchor="middle" x="268" y="-509" font-family="Times New Roman,serif" font-size="10.00">)</text>
</g>
<!-- I7&#45;&gt;I1 -->
<g id="edge15" class="edge">
<title>I7&#45;&gt;I1</title>
<path fill="none" stroke="red" d="M383.45,-189.19C386.13,-204.03 388.68,-220.66 390,-236 392.71,-267.44 390.93,-275.46 390,-307 384.89,-479.67 381.92,-522.9 367,-695 366.78,-697.56 366.54,-700.15 366.3,-702.77"/>
<polygon fill="red" stroke="red" points="362.8,-702.66 365.32,-712.95 369.76,-703.33 362.8,-702.66"/>
<text text-anchor="middle" x="391" y="-418.5" font-family="Times New Roman,serif" font-size="10.00">(</text>
</g>
<!-- I7&#45;&gt;I5 -->
<g id="edge17" class="edge">
<title>I7&#45;&gt;I5</title>
<path fill="none" stroke="red" d="M327.16,-101.75C310.02,-87.02 290.9,-70.6 274.86,-56.82"/>
<polygon fill="red" stroke="red" points="277.13,-54.15 267.26,-50.28 272.56,-59.46 277.13,-54.15"/>
<text text-anchor="middle" x="303" y="-71" font-family="Times New Roman,serif" font-size="10.00">id</text>
</g>
<!-- I10 -->
<g id="node11" class="node">
<title>I10</title>
<path fill="lightcoral" stroke="black" d="M408.5,-50C408.5,-50 339.5,-50 339.5,-50 333.5,-50 327.5,-44 327.5,-38 327.5,-38 327.5,-12 327.5,-12 327.5,-6 333.5,0 339.5,0 339.5,0 408.5,0 408.5,0 414.5,0 420.5,-6 420.5,-12 420.5,-12 420.5,-38 420.5,-38 420.5,-44 414.5,-50 408.5,-50"/>
<polygon fill="darkblue" stroke="transparent" points="336,-25 336,-46 413,-46 413,-25 336,-25"/>
<polygon fill="none" stroke="black" points="336,-25 336,-46 413,-46 413,-25 336,-25"/>
<text text-anchor="start" x="364" y="-32.8" font-family="Times New Roman,serif" font-weight="bold" font-size="14.00" fill="white">I10</text>
<polygon fill="none" stroke="black" points="336,-4 336,-25 413,-25 413,-4 336,-4"/>
<text text-anchor="start" x="339" y="-10.8" font-family="Times New Roman,serif" font-size="14.00">T → T * F •</text>
</g>
<!-- I7&#45;&gt;I10 -->
<g id="edge16" class="edge">
<title>I7&#45;&gt;I10</title>
<path fill="none" stroke="blue" stroke-width="2" d="M374,-96.82C374,-84.64 374,-71.67 374,-60.2"/>
<polygon fill="blue" stroke="blue" stroke-width="2" points="377.5,-60.16 374,-50.16 370.5,-60.16 377.5,-60.16"/>
<text text-anchor="middle" x="377" y="-71" font-family="Times New Roman,serif" font-size="10.00">F</text>
</g>
<!-- I8&#45;&gt;I1 -->
<g id="edge18" class="edge">
<title>I8&#45;&gt;I1</title>
<path fill="none" stroke="red" d="M231.01,-480.17C233.95,-482.92 236.95,-485.55 240,-488 253.33,-498.71 260.25,-495.84 274,-506 288.66,-516.83 294.43,-518.91 303,-535 330.44,-586.5 343.49,-650.58 349.66,-702.82"/>
<polygon fill="red" stroke="red" points="346.18,-703.21 350.77,-712.76 353.14,-702.44 346.18,-703.21"/>
<text text-anchor="middle" x="333" y="-568" font-family="Times New Roman,serif" font-size="10.00">(</text>
</g>
<!-- I8&#45;&gt;I2 -->
<g id="edge19" class="edge">
<title>I8&#45;&gt;I2</title>
<path fill="none" stroke="blue" stroke-width="2" d="M231.19,-362.74C234.11,-359.72 237.05,-356.79 240,-354 265.11,-330.23 274.62,-328.11 302,-307 303.75,-305.65 305.53,-304.27 307.34,-302.87"/>
<polygon fill="blue" stroke="blue" stroke-width="2" points="309.54,-305.6 315.28,-296.69 305.24,-300.07 309.54,-305.6"/>
<text text-anchor="middle" x="280" y="-328" font-family="Times New Roman,serif" font-size="10.00">F</text>
</g>
<!-- I8&#45;&gt;I5 -->
<g id="edge21" class="edge">
<title>I8&#45;&gt;I5</title>
<path fill="none" stroke="red" d="M183.02,-353.74C183.3,-318.62 184.89,-274.82 190,-236 198.29,-173.04 217.11,-101.32 228.86,-60.08"/>
<polygon fill="red" stroke="red" points="232.28,-60.86 231.69,-50.28 225.55,-58.92 232.28,-60.86"/>
<text text-anchor="middle" x="199" y="-210" font-family="Times New Roman,serif" font-size="10.00">id</text>
</g>
<!-- I11 -->
<g id="node12" class="node">
<title>I11</title>
<path fill="orange" stroke="black" d="M281,-307C281,-307 211,-307 211,-307 205,-307 199,-301 199,-295 199,-295 199,-248 199,-248 199,-242 205,-236 211,-236 211,-236 281,-236 281,-236 287,-236 293,-242 293,-248 293,-248 293,-295 293,-295 293,-301 287,-307 281,-307"/>
<polygon fill="darkblue" stroke="transparent" points="207,-281.5 207,-302.5 285,-302.5 285,-281.5 207,-281.5"/>
<polygon fill="none" stroke="black" points="207,-281.5 207,-302.5 285,-302.5 285,-281.5 207,-281.5"/>
<text text-anchor="start" x="235.5" y="-289.3" font-family="Times New Roman,serif" font-weight="bold" font-size="14.00" fill="white">I11</text>
<polygon fill="none" stroke="black" points="207,-260.5 207,-281.5 285,-281.5 285,-260.5 207,-260.5"/>
<text text-anchor="start" x="210" y="-267.3" font-family="Times New Roman,serif" font-size="14.00">E → E + T •</text>
<polygon fill="none" stroke="black" points="207,-239.5 207,-260.5 285,-260.5 285,-239.5 207,-239.5"/>
<text text-anchor="start" x="210" y="-246.3" font-family="Times New Roman,serif" font-size="14.00">T → T • * F</text>
</g>
<!-- I8&#45;&gt;I11 -->
<g id="edge20" class="edge">
<title>I8&#45;&gt;I11</title>
<path fill="none" stroke="blue" stroke-width="2" d="M211.92,-353.59C217.19,-341.04 222.58,-328.21 227.48,-316.56"/>
<polygon fill="blue" stroke="blue" stroke-width="2" points="230.81,-317.67 231.46,-307.09 224.36,-314.95 230.81,-317.67"/>
<text text-anchor="middle" x="226.5" y="-328" font-family="Times New Roman,serif" font-size="10.00">T</text>
</g>
<!-- I11&#45;&gt;I7 -->
<g id="edge22" class="edge">
<title>I11&#45;&gt;I7</title>
<path fill="none" stroke="red" d="M280.98,-235.93C293.22,-223.84 307.26,-209.96 320.65,-196.72"/>
<polygon fill="red" stroke="red" points="323.36,-198.96 328.02,-189.45 318.44,-193.99 323.36,-198.96"/>
<text text-anchor="middle" x="313" y="-210" font-family="Times New Roman,serif" font-size="10.00">*</text>
</g>
<!-- start -->
<g id="node13" class="node">
<title>start</title>
</g>
<!-- start&#45;&gt;I0 -->
<g id="edge23" class="edge">
<title>start&#45;&gt;I0</title>
<path fill="none" stroke="green" stroke-width="2" d="M452,-1148.99C452,-1141.69 452,-1132.52 452,-1122.5"/>
<polygon fill="green" stroke="green" stroke-width="2" points="455.5,-1122.22 452,-1112.22 448.5,-1122.22 455.5,-1122.22"/>
</g>
</g>
</svg>
